<svg width="175" height="29" viewBox="0 0 175 29" fill="none" xmlns="http://www.w3.org/2000/svg">
<g clip-path="url(#clip0_84_5634)">
<path d="M12.1532 1.73106C12.9736 1.73106 13.7118 1.87042 14.3681 2.14913C15.0478 2.40462 15.6689 2.69494 16.2314 3.0201C16.8173 3.34527 17.3681 3.6472 17.8837 3.92592C18.3993 4.1814 18.9267 4.30913 19.4657 4.30913C19.8876 4.28592 20.3681 4.22785 20.9071 4.13494C21.3759 4.04204 21.915 3.90269 22.5243 3.71688C23.1571 3.50785 23.8603 3.20591 24.6337 2.81107C23.8603 3.5543 23.2275 4.1814 22.7353 4.69236C22.2665 5.18011 21.9032 5.58657 21.6454 5.91172C21.3407 6.28334 21.1181 6.57366 20.9775 6.7827C20.8368 7.03818 20.6259 7.42141 20.3447 7.93237C20.0868 8.39689 19.7353 9.024 19.29 9.81367C18.8447 10.5801 18.2821 11.5905 17.6025 12.8447C17.6025 11.2421 17.4384 9.99948 17.1103 9.1169C16.8056 8.23431 16.4657 7.56076 16.0907 7.09624C15.6454 6.56205 15.1415 6.22528 14.579 6.08592C14.0634 6.01624 13.5478 6.10915 13.0321 6.36463C12.5165 6.59689 12.0009 6.94528 11.4853 7.40979C10.9931 7.87431 10.5126 8.43173 10.0439 9.08206C9.5986 9.70916 9.18844 10.3711 8.81344 11.0679C8.46188 11.7646 8.16891 12.4731 7.93453 13.193C7.70016 13.8899 7.54782 14.5401 7.4775 15.144C7.40719 15.6783 7.39547 16.3053 7.44235 17.0253C7.48922 17.722 7.59469 18.4421 7.75875 19.1853C7.92282 19.9053 8.13375 20.6137 8.39156 21.3104C8.64938 22.0073 8.96578 22.6344 9.34078 23.1918C9.73922 23.7259 10.1845 24.1673 10.6767 24.5156C11.1689 24.8408 11.7314 24.9918 12.3642 24.9686C13.0673 24.9221 13.7587 24.713 14.4384 24.3414C15.0243 24.0395 15.622 23.575 16.2314 22.9479C16.8407 22.2976 17.3681 21.3802 17.8134 20.1956L23.0165 21.1363C21.5165 22.9479 20.0517 24.3066 18.622 25.2124C17.2157 26.1182 15.9501 26.7569 14.8251 27.1285C13.5126 27.5466 12.2704 27.744 11.0986 27.7208C9.62203 27.5582 8.23922 27.1169 6.95016 26.397C5.6611 25.677 4.54782 24.806 3.61032 23.784C2.69625 22.7389 1.98141 21.6008 1.46578 20.3698C0.950157 19.1388 0.7275 17.9311 0.797813 16.7466C0.844688 15.9569 1.00875 15.0395 1.29 13.9943C1.57125 12.9259 1.94625 11.8343 2.415 10.7194C2.90719 9.60464 3.49313 8.51302 4.17282 7.44464C4.8525 6.37624 5.6025 5.42398 6.42282 4.58785C7.24313 3.72849 8.13375 3.04333 9.09469 2.53235C10.0791 1.99816 11.0986 1.73106 12.1532 1.73106ZM23.8681 11.904L30.3368 11.9737C29.9618 13.3905 29.6806 14.5982 29.4931 15.5969C29.329 16.5956 29.2236 17.4318 29.1767 18.1053C29.0829 18.8718 29.0595 19.5221 29.1064 20.0563C29.1767 20.544 29.2939 21.0666 29.4579 21.6241C29.5986 22.0886 29.8095 22.6228 30.0907 23.2266C30.372 23.8305 30.747 24.4344 31.2157 25.0383C30.9345 24.9453 30.6298 24.8757 30.3017 24.8292C29.9736 24.7827 29.6689 24.7479 29.3876 24.7247C29.0595 24.7014 28.7314 24.7014 28.4032 24.7247C28.0751 24.7479 27.7118 24.7827 27.3134 24.8292C26.9853 24.8757 26.5868 24.9337 26.1181 25.0034C25.6493 25.0731 25.1571 25.166 24.6415 25.2822C24.9931 24.237 25.2626 23.3311 25.4501 22.5647C25.6611 21.7982 25.8134 21.1595 25.9071 20.6486C26.0009 20.0447 26.0595 19.5569 26.0829 19.1853C26.0829 18.7208 26.0829 18.1982 26.0829 17.6176C26.0829 17.0137 26.0829 16.4331 26.0829 15.8757C26.0829 15.3182 26.0712 14.8305 26.0478 14.4124C26.0243 13.9711 25.9775 13.6924 25.9071 13.5763L25.5556 13.2279C25.415 13.1117 25.204 12.9491 24.9228 12.7401C24.665 12.5078 24.3134 12.2292 23.8681 11.904ZM26.3642 6.53882C26.8564 6.28334 27.3486 6.21366 27.8407 6.32979C28.3564 6.44592 28.7548 6.66657 29.0361 6.99172C29.3173 7.31689 29.4111 7.70012 29.3173 8.14141C29.247 8.5827 28.872 9.01238 28.1923 9.43044C27.5126 9.82529 26.915 9.96464 26.3993 9.84852C25.8837 9.73238 25.5204 9.48852 25.3095 9.1169C25.0986 8.74529 25.0634 8.3156 25.204 7.82787C25.3447 7.31689 25.7314 6.88722 26.3642 6.53882ZM34.0712 23.6447C34.2353 22.8783 34.3525 22.2047 34.4228 21.6241C34.5165 21.0202 34.5868 20.5208 34.6337 20.1259C34.6806 19.6615 34.704 19.2666 34.704 18.9414C34.6806 18.5466 34.6571 18.0821 34.6337 17.5479C34.6337 16.9905 34.6103 16.4447 34.5634 15.9104C34.54 15.353 34.5048 14.8653 34.4579 14.4473C34.4111 14.0059 34.3525 13.6924 34.2821 13.5065C34.1884 13.3207 34.0595 13.1233 33.8954 12.9143C33.5673 12.5194 33.0868 12.1362 32.454 11.7646C32.9931 11.6485 33.4501 11.5556 33.8251 11.486C34.2236 11.393 34.5517 11.3117 34.8095 11.2421C35.0907 11.1491 35.3368 11.0679 35.5478 10.9982C35.7353 10.9285 35.9579 10.8589 36.2157 10.7892C36.4267 10.7427 36.6845 10.6847 36.9892 10.615C37.2939 10.5453 37.6454 10.464 38.0439 10.3711L37.9384 13.5414C38.6884 12.6589 39.4501 11.9969 40.2236 11.5556C40.997 11.1143 41.7236 10.8008 42.4032 10.615C43.1767 10.3827 43.9384 10.2666 44.6884 10.2666C45.6259 10.313 46.4931 10.464 47.29 10.7194C48.1103 10.975 48.8134 11.2769 49.3993 11.6253C50.0087 11.9504 50.5009 12.2989 50.8759 12.6705C51.2509 13.0421 51.4736 13.3672 51.5439 13.646C51.8251 14.5517 51.8954 15.3879 51.7548 16.1543C51.6142 16.8976 51.4267 17.6292 51.1923 18.3492C50.9814 19.046 50.7939 19.7427 50.6298 20.4395C50.4892 21.1363 50.5478 21.8912 50.8056 22.704C50.8993 22.913 50.9931 23.1221 51.0868 23.3311C51.1806 23.5169 51.2978 23.7027 51.4384 23.8886C51.579 24.0744 51.7431 24.2254 51.9306 24.3414C51.6728 24.3182 51.415 24.3066 51.1571 24.3066C50.8993 24.2834 50.665 24.2602 50.454 24.237C50.1962 24.2137 49.9618 24.1905 49.7509 24.1673C49.5165 24.144 49.2001 24.1324 48.8017 24.1324C48.122 24.1324 47.0673 24.1673 45.6376 24.237C45.8486 23.7492 46.0126 23.3427 46.1298 23.0176C46.2704 22.6692 46.3876 22.3905 46.4814 22.1814C46.5751 21.9259 46.6454 21.7285 46.6923 21.5892C46.9736 20.9156 47.1376 20.1492 47.1845 19.2899C47.2548 18.4305 47.1962 17.5595 47.0087 16.677C46.9384 16.375 46.8212 16.015 46.6571 15.5969C46.4931 15.1788 46.2704 14.7724 45.9892 14.3775C45.7314 13.9827 45.415 13.646 45.04 13.3672C44.6884 13.0886 44.2782 12.9259 43.8095 12.8795C43.3407 12.8331 42.8134 12.9491 42.2275 13.2279C41.665 13.5065 41.0556 14.0176 40.3993 14.7608C39.9071 15.3879 39.5204 16.1543 39.2392 17.0602C38.9814 17.8266 38.8056 18.7905 38.7118 19.9517C38.6181 21.0899 38.7587 22.4253 39.1337 23.9582C38.8056 23.9117 38.5009 23.8886 38.2197 23.8886C37.9384 23.8654 37.704 23.8421 37.5165 23.8189C37.2821 23.7957 37.0712 23.7724 36.8837 23.7492C36.6728 23.7492 36.4384 23.7376 36.1806 23.7143C35.9462 23.7143 35.6532 23.7143 35.3017 23.7143C34.9501 23.6912 34.54 23.6679 34.0712 23.6447ZM63.7157 21.8679C64.372 21.8679 64.9814 21.7982 65.5439 21.6589C66.0126 21.5427 66.4579 21.3569 66.8798 21.1014C67.3251 20.8228 67.6181 20.4163 67.7587 19.8821C68.2275 19.975 68.6259 20.0563 68.954 20.1259C69.2821 20.1724 69.5634 20.2189 69.7978 20.2654C70.0556 20.335 70.2782 20.3814 70.4657 20.4047C70.6532 20.4512 70.8759 20.4976 71.1337 20.544C71.3681 20.5905 71.6493 20.6486 71.9775 20.7182C72.329 20.7647 72.7392 20.8344 73.2079 20.9272C72.8564 20.8809 72.4931 20.9156 72.1181 21.0318C71.7665 21.1479 71.4267 21.2757 71.0986 21.415C70.7236 21.5776 70.372 21.775 70.0439 22.0073C69.8329 22.1466 69.5868 22.3556 69.3056 22.6344C69.0478 22.913 68.6728 23.1802 68.1806 23.4357C67.6884 23.6912 67.0321 23.9117 66.2118 24.0976C65.415 24.2602 64.3837 24.3182 63.1181 24.2718C61.5947 24.2254 60.3173 23.9582 59.2861 23.4705C58.2548 22.9595 57.4228 22.344 56.79 21.6241C56.1571 20.8809 55.7001 20.0796 55.4189 19.2202C55.1376 18.3608 54.9853 17.5595 54.9618 16.8163C54.9384 16.0731 55.1611 15.295 55.6298 14.4821C56.0986 13.6692 56.7548 12.9259 57.5986 12.2524C58.4657 11.5788 59.5087 11.033 60.7275 10.615C61.9462 10.1737 63.2821 9.95303 64.7353 9.95303C65.579 9.95303 66.3525 10.0576 67.0556 10.2666C67.7821 10.4524 68.4384 10.7078 69.0243 11.033C69.6337 11.3582 70.1611 11.7298 70.6064 12.1478C71.0517 12.5427 71.4267 12.9491 71.7314 13.3672C72.0361 13.8085 72.2939 14.2731 72.5048 14.7608C72.6923 15.1788 72.8447 15.655 72.9618 16.1892C73.079 16.7233 73.1142 17.2692 73.0673 17.8266C71.2861 17.8731 69.8447 17.9079 68.7431 17.9311C67.665 17.9543 66.8212 17.9659 66.2118 17.9659H64.6298H63.4345C63.0126 17.9659 62.4618 17.9776 61.7821 18.0008C61.1025 18.024 60.2704 18.0589 59.2861 18.1053C59.4032 19.0344 59.6962 19.7543 60.165 20.2654C60.6571 20.753 61.1728 21.1246 61.7118 21.3802C62.3212 21.6589 62.9892 21.8215 63.7157 21.8679ZM60.5517 15.5969C61.3017 15.6434 61.9228 15.6783 62.415 15.7014C62.9306 15.7246 63.3525 15.7479 63.6806 15.7711C64.0321 15.7943 64.3134 15.806 64.5243 15.806H65.4032C65.9892 15.806 67.079 15.7711 68.6728 15.7014C68.6025 14.6795 68.3798 13.9014 68.0048 13.3672C67.6532 12.8331 67.2782 12.4382 66.8798 12.1827C66.4111 11.904 65.8954 11.7414 65.3329 11.695C63.8095 11.7182 62.6728 12.0318 61.9228 12.6356C61.1962 13.2395 60.7392 14.2266 60.5517 15.5969ZM87.6298 1.20848C88.8954 1.25493 90.1728 1.48719 91.4618 1.90526C92.7743 2.3001 93.9814 2.95042 95.0829 3.85623C96.1845 4.73882 97.122 5.88849 97.8954 7.30528C98.6689 8.69883 99.1493 10.4059 99.3368 12.4266C99.5009 14.0757 99.29 15.713 98.704 17.3388C98.1415 18.9414 97.3564 20.4163 96.3486 21.7634C95.3407 23.1105 94.1806 24.2602 92.8681 25.2124C91.5556 26.1414 90.2431 26.7569 88.9306 27.0589C88.1337 27.2447 87.2548 27.268 86.2939 27.1285C85.3564 26.966 84.3954 26.6757 83.4111 26.2576C82.4501 25.8163 81.5009 25.2589 80.5634 24.5853C79.6493 23.9117 78.8173 23.1453 78.0673 22.286C77.3173 21.4034 76.6845 20.4512 76.1689 19.4292C75.6767 18.4073 75.372 17.3388 75.2548 16.224C75.1376 15.295 75.1259 14.2731 75.2197 13.1582C75.3368 12.0201 75.5595 10.8937 75.8876 9.77883C76.2392 8.64077 76.7197 7.54915 77.329 6.50399C77.9618 5.43559 78.7587 4.50656 79.7197 3.71688C80.6806 2.90397 81.8056 2.27687 83.0947 1.83558C84.4071 1.37106 85.9189 1.16203 87.6298 1.20848ZM81.3368 15.3182C81.0087 17.8034 81.2431 19.8008 82.04 21.3104C82.8603 22.8202 84.0907 23.7376 85.7314 24.0628C86.5282 24.2254 87.29 24.0628 88.0165 23.575C88.7665 23.0641 89.4462 22.3324 90.0556 21.3802C90.665 20.4279 91.1923 19.313 91.6376 18.0357C92.0829 16.7582 92.4111 15.4227 92.622 14.0292C92.8329 12.6356 92.8447 11.3814 92.6571 10.2666C92.4931 9.12851 92.2001 8.16464 91.7782 7.37495C91.3564 6.56205 90.8407 5.93495 90.2314 5.49366C89.6454 5.05236 89.0361 4.8085 88.4032 4.76204C87.3017 4.69236 86.3407 4.98269 85.5204 5.63301C84.7001 6.26011 84.0087 7.08463 83.4462 8.10657C82.8837 9.12852 82.4267 10.2782 82.0751 11.5556C81.747 12.8331 81.5009 14.0873 81.3368 15.3182ZM102.228 23.6447C102.392 22.8783 102.509 22.2047 102.579 21.6241C102.673 21.0202 102.743 20.5208 102.79 20.1259C102.837 19.6615 102.86 19.2666 102.86 18.9414C102.837 18.5466 102.813 18.0821 102.79 17.5479C102.79 16.9905 102.767 16.4447 102.72 15.9104C102.696 15.353 102.661 14.8653 102.614 14.4473C102.567 14.0059 102.509 13.6924 102.439 13.5065C102.345 13.3207 102.216 13.1233 102.052 12.9143C101.724 12.5194 101.243 12.1362 100.61 11.7646C101.149 11.6485 101.606 11.5556 101.981 11.486C102.38 11.393 102.708 11.3117 102.966 11.2421C103.247 11.1491 103.493 11.0679 103.704 10.9982C103.892 10.9285 104.114 10.8589 104.372 10.7892C104.583 10.7427 104.841 10.6847 105.146 10.615C105.45 10.5453 105.802 10.464 106.2 10.3711L106.095 13.5414C106.845 12.6589 107.606 11.9969 108.38 11.5556C109.153 11.1143 109.88 10.8008 110.56 10.615C111.333 10.3827 112.095 10.2666 112.845 10.2666C113.782 10.313 114.649 10.464 115.446 10.7194C116.267 10.975 116.97 11.2769 117.556 11.6253C118.165 11.9504 118.657 12.2989 119.032 12.6705C119.407 13.0421 119.63 13.3672 119.7 13.646C119.981 14.5517 120.052 15.3879 119.911 16.1543C119.771 16.8976 119.583 17.6292 119.349 18.3492C119.138 19.046 118.95 19.7427 118.786 20.4395C118.646 21.1363 118.704 21.8912 118.962 22.704C119.056 22.913 119.149 23.1221 119.243 23.3311C119.337 23.5169 119.454 23.7027 119.595 23.8886C119.735 24.0744 119.899 24.2254 120.087 24.3414C119.829 24.3182 119.571 24.3066 119.313 24.3066C119.056 24.2834 118.821 24.2602 118.61 24.237C118.353 24.2137 118.118 24.1905 117.907 24.1673C117.673 24.144 117.356 24.1324 116.958 24.1324C116.278 24.1324 115.224 24.1673 113.794 24.237C114.005 23.7492 114.169 23.3427 114.286 23.0176C114.427 22.6692 114.544 22.3905 114.638 22.1814C114.731 21.9259 114.802 21.7285 114.849 21.5892C115.13 20.9156 115.294 20.1492 115.341 19.2899C115.411 18.4305 115.353 17.5595 115.165 16.677C115.095 16.375 114.978 16.015 114.813 15.5969C114.649 15.1788 114.427 14.7724 114.146 14.3775C113.888 13.9827 113.571 13.646 113.196 13.3672C112.845 13.0886 112.435 12.9259 111.966 12.8795C111.497 12.8331 110.97 12.9491 110.384 13.2279C109.821 13.5065 109.212 14.0176 108.556 14.7608C108.063 15.3879 107.677 16.1543 107.396 17.0602C107.138 17.8266 106.962 18.7905 106.868 19.9517C106.774 21.0899 106.915 22.4253 107.29 23.9582C106.962 23.9117 106.657 23.8886 106.376 23.8886C106.095 23.8654 105.86 23.8421 105.673 23.8189C105.439 23.7957 105.228 23.7724 105.04 23.7492C104.829 23.7492 104.595 23.7376 104.337 23.7143C104.103 23.7143 103.81 23.7143 103.458 23.7143C103.106 23.6912 102.696 23.6679 102.228 23.6447ZM131.872 21.8679C132.528 21.8679 133.138 21.7982 133.7 21.6589C134.169 21.5427 134.614 21.3569 135.036 21.1014C135.481 20.8228 135.774 20.4163 135.915 19.8821C136.384 19.975 136.782 20.0563 137.11 20.1259C137.439 20.1724 137.72 20.2189 137.954 20.2654C138.212 20.335 138.435 20.3814 138.622 20.4047C138.81 20.4512 139.032 20.4976 139.29 20.544C139.524 20.5905 139.806 20.6486 140.134 20.7182C140.485 20.7647 140.896 20.8344 141.364 20.9272C141.013 20.8809 140.649 20.9156 140.274 21.0318C139.923 21.1479 139.583 21.2757 139.255 21.415C138.88 21.5776 138.528 21.775 138.2 22.0073C137.989 22.1466 137.743 22.3556 137.462 22.6344C137.204 22.913 136.829 23.1802 136.337 23.4357C135.845 23.6912 135.189 23.9117 134.368 24.0976C133.571 24.2602 132.54 24.3182 131.274 24.2718C129.751 24.2254 128.474 23.9582 127.442 23.4705C126.411 22.9595 125.579 22.344 124.946 21.6241C124.313 20.8809 123.856 20.0796 123.575 19.2202C123.294 18.3608 123.142 17.5595 123.118 16.8163C123.095 16.0731 123.317 15.295 123.786 14.4821C124.255 13.6692 124.911 12.9259 125.755 12.2524C126.622 11.5788 127.665 11.033 128.884 10.615C130.103 10.1737 131.439 9.95303 132.892 9.95303C133.735 9.95303 134.509 10.0576 135.212 10.2666C135.939 10.4524 136.595 10.7078 137.181 11.033C137.79 11.3582 138.317 11.7298 138.763 12.1478C139.208 12.5427 139.583 12.9491 139.888 13.3672C140.192 13.8085 140.45 14.2731 140.661 14.7608C140.849 15.1788 141.001 15.655 141.118 16.1892C141.235 16.7233 141.271 17.2692 141.224 17.8266C139.442 17.8731 138.001 17.9079 136.899 17.9311C135.821 17.9543 134.978 17.9659 134.368 17.9659H132.786H131.591C131.169 17.9659 130.618 17.9776 129.939 18.0008C129.259 18.024 128.427 18.0589 127.442 18.1053C127.56 19.0344 127.853 19.7543 128.321 20.2654C128.813 20.753 129.329 21.1246 129.868 21.3802C130.478 21.6589 131.146 21.8215 131.872 21.8679ZM128.708 15.5969C129.458 15.6434 130.079 15.6783 130.571 15.7014C131.087 15.7246 131.509 15.7479 131.837 15.7711C132.189 15.7943 132.47 15.806 132.681 15.806H133.56C134.146 15.806 135.235 15.7711 136.829 15.7014C136.759 14.6795 136.536 13.9014 136.161 13.3672C135.81 12.8331 135.435 12.4382 135.036 12.1827C134.567 11.904 134.052 11.7414 133.489 11.695C131.966 11.7182 130.829 12.0318 130.079 12.6356C129.353 13.2395 128.896 14.2266 128.708 15.5969ZM144.044 2.91558C144.489 3.24075 144.935 3.48462 145.38 3.6472C145.849 3.78656 146.271 3.87946 146.646 3.92592C147.067 3.99559 147.489 4.00721 147.911 3.96075C148.31 3.9143 148.72 3.77494 149.142 3.54269C149.563 3.31042 150.056 3.06656 150.618 2.81107C151.181 2.55558 151.837 2.33494 152.587 2.14913C153.36 1.9401 154.286 1.83558 155.364 1.83558C155.833 1.83558 156.325 1.92849 156.841 2.11429C157.38 2.3001 157.896 2.54397 158.388 2.84591C158.88 3.12462 159.325 3.43817 159.724 3.78656C160.146 4.13494 160.462 4.48334 160.673 4.83172C160.907 5.18011 161.071 5.74915 161.165 6.53882C161.259 7.30528 161.294 8.14141 161.271 9.04722C161.247 9.95303 161.165 10.8473 161.024 11.7298C160.907 12.6124 160.731 13.3324 160.497 13.8899C160.216 14.3775 159.677 15.0047 158.88 15.7711C158.2 16.4215 157.181 17.2576 155.821 18.2796C154.462 19.3014 152.634 20.5208 150.337 21.9376C151.696 21.9143 152.833 21.8796 153.747 21.8331C154.685 21.7634 155.446 21.6938 156.032 21.6241C156.712 21.5311 157.251 21.4382 157.649 21.3453C158.001 21.206 158.376 21.0086 158.774 20.753C159.103 20.5208 159.454 20.2189 159.829 19.8473C160.228 19.4757 160.614 18.9879 160.989 18.384C161.06 19.6382 161.13 20.6253 161.2 21.3453C161.247 21.7634 161.282 22.1234 161.306 22.4253C161.329 22.704 161.353 23.0292 161.376 23.4008C161.399 23.7259 161.411 24.0976 161.411 24.5156C161.435 24.9337 161.47 25.375 161.517 25.8396C160.345 25.5376 159.278 25.3053 158.317 25.1427C157.356 24.9569 156.536 24.8292 155.856 24.7595C155.06 24.6667 154.345 24.6202 153.712 24.6202C153.056 24.6434 152.329 24.7014 151.532 24.7944C150.829 24.8873 149.985 25.0266 149.001 25.2124C148.04 25.375 146.95 25.6189 145.731 25.944C145.638 25.6886 145.556 25.4331 145.485 25.1776C145.415 24.8989 145.356 24.6318 145.31 24.3763C145.239 24.0976 145.181 23.8189 145.134 23.5401C145.087 23.2615 145.04 22.9944 144.993 22.7389C144.946 22.5066 144.911 22.2628 144.888 22.0073C144.864 21.7518 144.841 21.5079 144.817 21.2757C146.692 20.0912 148.216 19.0228 149.388 18.0705C150.56 17.095 151.485 16.2705 152.165 15.5969C152.939 14.8072 153.524 14.0873 153.923 13.4369C154.321 12.6473 154.649 11.7762 154.907 10.824C155.165 9.87174 155.247 8.98915 155.153 8.17625C155.083 7.36334 154.802 6.70141 154.31 6.19043C153.817 5.65624 153.032 5.42398 151.954 5.49366C151.251 5.54011 150.583 5.78399 149.95 6.22528C149.341 6.66657 148.778 7.20076 148.263 7.82787C147.747 8.45496 147.29 9.12852 146.892 9.84852C146.493 10.5453 146.153 11.2072 145.872 11.8343C145.614 12.4615 145.403 12.984 145.239 13.4021C145.099 13.8202 145.028 14.0408 145.028 14.064C145.005 14.1104 144.97 13.9362 144.923 13.5414C144.899 13.1466 144.864 12.6589 144.817 12.0782C144.794 11.4744 144.759 10.8473 144.712 10.1969C144.665 9.54658 144.618 9.00077 144.571 8.55948C144.548 8.21108 144.513 7.75818 144.466 7.20076C144.396 6.29495 144.255 4.86656 144.044 2.91558ZM164.864 5.87688C165.685 5.6214 166.353 5.41236 166.868 5.24978C167.384 5.06398 167.806 4.91301 168.134 4.79688C168.509 4.65753 168.79 4.52978 168.978 4.41365L169.821 3.99559C170.149 3.83301 170.571 3.62398 171.087 3.36849C171.603 3.08977 172.271 2.74139 173.091 2.32333C172.903 3.20591 172.763 4.04204 172.669 4.83172C172.599 5.59818 172.54 6.28334 172.493 6.88722C172.423 7.58399 172.388 8.2227 172.388 8.80335C172.364 9.29109 172.329 9.94142 172.282 10.7543C172.259 11.5672 172.224 12.4498 172.177 13.4021C172.13 14.3543 172.083 15.3298 172.036 16.3285C171.989 17.3272 171.954 18.2679 171.931 19.1505C171.931 20.0098 171.942 20.753 171.966 21.3802C172.013 22.0073 172.095 22.437 172.212 22.6692C172.329 22.9479 172.481 23.215 172.669 23.4705C172.833 23.7027 173.021 23.9698 173.231 24.2718C173.466 24.5505 173.747 24.8292 174.075 25.1079C173.536 25.2241 173.032 25.3285 172.563 25.4215C172.095 25.4912 171.685 25.5492 171.333 25.5957C170.911 25.6654 170.536 25.7234 170.208 25.7698C169.856 25.7931 169.376 25.8512 168.767 25.944C168.251 26.0137 167.595 26.1066 166.798 26.2228C166.001 26.3156 165.017 26.4202 163.845 26.5363C164.454 26.1647 164.935 25.8047 165.286 25.4563C165.661 25.1079 165.942 24.806 166.13 24.5505C166.341 24.2486 166.47 23.9582 166.517 23.6796C166.54 23.4938 166.575 22.9944 166.622 22.1814C166.692 21.3453 166.751 20.3698 166.798 19.255C166.868 18.1169 166.927 16.9091 166.974 15.6318C167.044 14.3311 167.091 13.1233 167.114 12.0085C167.138 10.8937 167.149 9.94142 167.149 9.15173C167.149 8.36206 167.114 7.88593 167.044 7.72335C166.95 7.56076 166.81 7.37495 166.622 7.16593C166.458 6.98012 166.235 6.7827 165.954 6.57366C165.696 6.36463 165.333 6.13237 164.864 5.87688Z" fill="white"/>
</g>
<defs>
<clipPath id="clip0_84_5634">
<rect width="174" height="27.7472" fill="white" transform="translate(0.5 0.720703)"/>
</clipPath>
</defs>
</svg>
