<svg width="123" height="46" viewBox="0 0 123 46" fill="none" xmlns="http://www.w3.org/2000/svg">
<g clip-path="url(#clip0_77_3525)">
<path d="M9.42188 44.7299C13.1953 44.7299 16.7578 42.8718 19.4531 41.0138C21 39.9221 22.4531 38.6911 23.8359 37.2744L20.8125 34.1621C18.375 36.5079 13.5469 39.806 9.79688 39.806C8.60156 39.806 7.80469 39.388 6.84375 37.6924C12.3047 36.206 16.3359 32.095 16.3359 28.2627C16.3359 24.7557 13.6641 22.4563 10.1719 22.4563C3.75 22.4563 0.609375 29.7957 0.609375 35.0448C0.609375 40.1776 3.53906 44.7299 9.42188 44.7299ZM6.30469 33.8138C6.30469 31.7466 6.67969 26.8924 10.6875 26.8924C11.4375 26.8924 12.0234 27.8911 12.0234 29.2847C12.0234 31.2357 8.53125 33.8138 6.30469 33.8138ZM27.6875 25.7776C32.0469 20.5285 36.9688 13.6537 36.9688 7.77754C36.9688 3.57366 36.2422 0.13623 31.4844 0.13623C25.1328 0.13623 21.4062 16.8357 19.9062 25.9402C19.1562 30.4924 18.7578 34.2318 18.5 36.9492C18.3594 38.5286 18.2656 39.9454 18.2188 41.1996C19.3438 41.8731 20.5156 42.4537 21.7578 42.9648C23.8906 43.8705 26.6094 44.7299 29.2578 44.7299H29.8438C30.4297 44.4976 30.9922 44.2653 31.5078 44.0099C32.4219 43.5686 33.4297 43.0344 33.9688 42.5002C38.375 41.5015 41.6328 40.1312 45.0781 37.0421L43.2734 33.2099C40.7891 35.6718 38.4922 36.717 36.2188 38.0408C38.0703 35.2073 38.4688 32.7918 38.4688 29.6563C38.4688 25.8937 36.2891 22.4331 32.6328 22.4331C31.2031 22.4331 29.8203 23.873 28.0625 26.0331L27.6875 25.7776ZM30.1719 27.7286C32.6328 27.7286 33.2188 29.0989 33.2188 30.6318C33.2188 34.1854 31.8594 40.2705 28.625 40.2705C27.7109 40.2705 26.6797 40.0847 25.7656 39.8989C25.25 39.7828 24.7344 39.6666 24.2188 39.5041C24.2656 38.9699 24.3125 38.3893 24.3828 37.7622C24.5 36.6705 24.6875 35.2537 24.9688 33.5815C25.6484 29.4473 27.9922 27.7286 30.1719 27.7286ZM32.4688 6.45367C32 13.0498 27.5234 19.0653 24.9688 23.9427C25.7188 19.855 28.6953 4.5956 31.2734 4.5956C32.3281 4.5956 32.4688 6.19818 32.4688 6.45367ZM43.2812 37.9479C43.4688 40.8976 43.5156 44.9854 47.1484 44.9854C49.3281 44.9854 52.2578 40.526 54.0859 36.7867C54.1562 39.1092 56.1719 41.3622 59.5234 41.3622C61.5156 41.3622 63.8125 40.526 65.875 39.2254V33.7673C65.1953 34.2086 64.5391 34.6267 63.9062 34.975C62.8047 35.6022 61.4688 36.1596 60.5312 36.1596C58 36.1596 57.3672 34.6498 57.3672 33.1634C57.3672 32.4435 57.4844 31.7699 57.6484 31.2357C57.7188 30.9337 57.8125 30.655 57.9297 30.3763C59.3125 27.3337 60.2969 26.0795 60.2969 24.3841C60.2969 23.246 59.1016 22.4331 57.2969 22.4331C55.9375 22.4331 54.7656 23.2228 54.5781 24.0821L48.4141 38.6447L48.0859 38.6679L49 23.966C48.9766 23.1531 48.3672 22.4331 47.3125 22.4331C47.1484 22.4331 47.0312 22.4563 46.8672 22.4795L44.0547 22.9208C43.0469 23.0833 42.8594 24.9182 42.8594 28.1002C42.8594 30.5621 43.0469 32.5596 43.2344 37.2047L43.2812 37.9479ZM77.7656 40.2937C77.7656 37.8782 76.4062 36.5312 73.8047 36.5312C70.7812 36.5312 69.5156 38.7144 69.5156 40.9673C69.5156 43.6151 71.0625 44.7299 73.3594 44.7299C77.6953 44.7299 77.7656 40.6886 77.7656 40.2937ZM96.2656 35.0679C94.2031 36.7402 90.6875 40.2705 88.4609 40.2705C87.5 40.2705 87.2656 39.388 87.2656 37.9944C87.2656 33.6976 90.4062 25.8241 90.4062 23.7569C90.4062 22.944 90.0312 22.4331 88.7188 22.4331C87.3125 22.4331 84.8984 23.0833 84.4531 24.6859C83.3281 29.3311 81.2656 36.1363 81.2656 40.0615C81.2656 42.8718 82.3672 44.7299 85.625 44.7299C89.2344 44.7299 94.0156 41.8267 96.2656 39.7828V35.0679ZM85.7891 15.9066C85.7891 18.0434 87.0781 19.437 89.8203 19.437C93.0078 19.437 94.3672 17.3698 94.3672 15.2794C94.3672 12.9569 92.5625 12.0279 90.3828 12.0279C86.9141 12.0279 85.7891 14.4898 85.7891 15.9066ZM105.438 27.1711C105.531 27.0782 105.508 33.7441 105.789 34.9983C105.438 35.9041 105.039 36.6937 104.594 37.4138C103.844 38.6447 102.766 39.8293 101.641 39.8293C99.4609 39.8293 99.0156 38.4589 99.0156 37.228C99.0156 34.1157 101.289 29.1686 105.438 27.1711ZM120.859 34.8125C119.922 35.6022 119.031 36.2989 118.164 36.926C116.641 37.9944 114.906 39.0396 113.734 39.0396C112.492 39.0396 112.094 37.4138 112.094 35.6485C112.094 34.255 112.492 32.4666 112.797 31.6305C116.055 23.8266 119.922 17.4163 120.742 8.63689C120.789 8.05625 120.812 7.49883 120.812 6.96463C120.812 3.41108 119.734 0.13623 116.781 0.13623C110.828 0.13623 105.625 11.7956 105.344 23.7105C98.2188 24.3608 93.3906 31.1428 93.3906 37.0653C93.3906 40.9441 95.3125 44.7299 99.3438 44.7299C102.203 44.7299 105.133 42.8254 107.453 40.5957C108.953 44.1957 111.812 44.7067 112.68 44.7067C114.227 44.7067 116.453 43.5686 118.281 42.4537C119.359 41.7802 120.461 41.0369 121.562 40.1776L120.859 34.8125ZM116.453 10.3324C116.148 13.6073 114.789 17.7879 113.523 21.2253C112.773 23.2228 111.953 25.2202 111.062 27.2409V27.0086C111.062 26.0795 111.062 23.4318 111.32 20.366C111.508 18.113 112.727 5.52463 115.727 5.52463C116.289 5.52463 116.594 6.08205 116.594 7.75432C116.594 8.38141 116.547 9.24077 116.453 10.3324Z" fill="white"/>
</g>
<defs>
<clipPath id="clip0_77_3525">
<rect width="122" height="45.5846" fill="white" transform="translate(0.5 0.13623)"/>
</clipPath>
</defs>
</svg>
