<svg width="81" height="27" viewBox="0 0 81 27" fill="none" xmlns="http://www.w3.org/2000/svg">
<g clip-path="url(#clip0_84_5636)">
<path d="M4.76411 2.62481C4.76411 3.24318 4.75211 3.96857 4.72811 4.80098C4.70411 5.60962 4.68011 6.22798 4.65611 6.65608C4.58411 7.86903 4.54811 9.08198 4.54811 10.2949C4.54811 11.1987 4.58411 12.1381 4.65611 13.1132C5.40011 12.043 6.20411 11.2581 7.06811 10.7587C7.93211 10.2592 8.97611 10.0095 10.2001 10.0095C11.0881 10.0095 11.9161 10.4019 12.6841 11.1868C13.4521 11.9716 13.9441 12.8873 14.1601 13.9338C14.2321 14.8613 14.2681 15.991 14.2681 17.3229C14.2681 18.1791 14.3161 19.2969 14.4121 20.6763C14.4601 21.1996 14.5921 21.6871 14.8081 22.139C15.0481 22.5909 15.3841 22.8168 15.8161 22.8168C16.0321 22.8168 16.2001 22.8049 16.3201 22.7812C16.4641 22.7574 16.5961 22.7455 16.7161 22.7455C17.0521 22.7455 17.2801 22.8287 17.4001 22.9952C17.5441 23.1617 17.6161 23.3995 17.6161 23.7087C17.6161 24.2795 17.3281 24.7076 16.7521 24.993C16.1761 25.2784 15.6481 25.4211 15.1681 25.4211C13.4401 25.4211 12.2521 24.7076 11.6041 23.2806C11.2441 22.472 11.0161 21.4255 10.9201 20.1412C10.8241 18.8331 10.7761 17.311 10.7761 15.5748C10.7761 13.8624 10.1881 13.0062 9.01211 13.0062C8.36411 13.0062 7.70411 13.3511 7.03211 14.0408C6.38411 14.7067 5.84411 15.5986 5.41211 16.7164C4.98011 17.8104 4.76411 18.952 4.76411 20.1412L4.80011 23.8514C4.80011 24.3746 4.59611 24.7671 4.18811 25.0287C3.78011 25.2665 3.39611 25.3854 3.03611 25.3854C2.50811 25.3854 2.02811 25.2308 1.59611 24.9216C1.16411 24.5887 0.948109 24.22 0.948109 23.8157C1.11611 22.032 1.20011 19.0472 1.20011 14.8613C1.20011 14.1003 1.14011 11.2819 1.02011 6.40636L0.912109 3.12426C0.912109 2.60103 1.15211 2.14915 1.63211 1.76862C2.11211 1.3643 2.65211 1.16214 3.25211 1.16214C3.78011 1.16214 4.16411 1.28106 4.40411 1.51889C4.64411 1.75672 4.76411 2.12537 4.76411 2.62481ZM22.1152 2.33941C22.9552 2.41076 23.6872 2.63671 24.3112 3.01724C24.9352 3.37399 25.2472 3.921 25.2472 4.65829C25.2472 5.2053 24.9832 5.64529 24.4552 5.97826C23.9512 6.28744 23.3392 6.44203 22.6192 6.44203C21.9232 6.44203 21.4432 6.26366 21.1792 5.90691C20.9152 5.55016 20.7832 5.18152 20.7832 4.80098C20.7832 4.08749 20.8552 3.4929 20.9992 3.01724C21.1672 2.54157 21.5392 2.31563 22.1152 2.33941ZM24.9952 18.1434V19.178C24.9952 20.1055 25.0192 20.9855 25.0672 21.8179C25.1392 22.6266 25.2232 23.4471 25.3192 24.2795C25.2952 24.5173 25.1152 24.7671 24.7792 25.0287C24.4432 25.2665 24.1432 25.3854 23.8792 25.3854C23.4232 25.3854 22.9552 25.3022 22.4752 25.1357C22.0192 24.9454 21.7432 24.7195 21.6472 24.4579C21.5032 23.6968 21.4312 23.019 21.4312 22.4244C21.4312 20.4742 21.3712 18.2861 21.2512 15.8602C21.1552 13.7197 21.1072 12.2214 21.1072 11.3652C21.1072 10.9371 21.3232 10.5684 21.7552 10.2592C22.1872 9.95007 22.6432 9.79548 23.1232 9.79548C23.8192 9.79548 24.2992 9.95007 24.5632 10.2592C24.8512 10.5684 24.9952 11.056 24.9952 11.7219V18.1434ZM37.4061 4.23019C36.6861 4.23019 36.2421 4.82477 36.0741 6.01393C35.9061 7.6312 35.8221 8.85604 35.8221 9.68845C36.3021 9.73602 36.8061 9.7598 37.3341 9.7598C37.6701 9.7598 38.1021 9.73602 38.6301 9.68845L39.5661 9.65278C40.0461 9.65278 40.4061 9.73602 40.6461 9.9025C40.8861 10.069 41.0061 10.3425 41.0061 10.723C41.0061 11.2463 40.8261 11.6981 40.4661 12.0787C40.1301 12.4354 39.7341 12.6138 39.2781 12.6138C37.5501 12.6138 36.3861 12.697 35.7861 12.8635C35.7861 14.3143 35.8581 16.3716 36.0021 19.0353L36.0741 20.7834L36.2181 23.566C36.2661 24.2557 36.1941 24.7433 36.0021 25.0287C35.8341 25.2903 35.4621 25.4211 34.8861 25.4211C33.8301 25.4211 33.1461 24.7908 32.8341 23.5303C32.6421 22.6028 32.4861 21.3066 32.3661 19.6418C32.2461 17.9769 32.1861 16.4905 32.1861 15.1824C32.1861 14.4927 32.2221 13.7078 32.2941 12.8278C32.2461 12.8041 32.1141 12.7922 31.8981 12.7922C31.6821 12.7922 31.5261 12.8041 31.4301 12.8278C30.7101 12.8754 30.1821 12.8992 29.8461 12.8992C29.6301 12.8992 29.4141 12.7565 29.1981 12.4711C28.9821 12.1619 28.8741 11.7933 28.8741 11.3652C28.8741 11.1273 28.9581 10.9133 29.1261 10.723C29.2941 10.509 29.4981 10.3544 29.7381 10.2592C30.0981 10.069 30.6141 9.97385 31.2861 9.97385L32.3661 10.0095C32.3661 6.6323 32.7501 4.28964 33.5181 2.98156C34.2381 1.74483 35.4261 1.12646 37.0821 1.12646C38.0421 1.12646 38.9181 1.3643 39.7101 1.83997C40.0461 2.05401 40.2981 2.31563 40.4661 2.62481C40.6581 2.934 40.7541 3.23129 40.7541 3.51669C40.7541 3.87344 40.6101 4.24208 40.3221 4.62261C40.0581 5.00314 39.6501 5.19341 39.0981 5.19341C38.8821 5.19341 38.6061 5.02693 38.2701 4.69396C38.1501 4.57504 38.0181 4.46802 37.8741 4.37289C37.7301 4.27775 37.5741 4.23019 37.4061 4.23019ZM48.0924 19.7131C48.0924 20.6169 48.2244 21.3185 48.4884 21.8179C48.7764 22.2936 49.1364 22.5314 49.5684 22.5314C49.8084 22.5314 50.0364 22.5195 50.2524 22.4958C50.4684 22.4482 50.6844 22.4244 50.9004 22.4244C51.1404 22.4244 51.3444 22.5433 51.5124 22.7812C51.7044 23.019 51.8004 23.2806 51.8004 23.566C51.8004 24.1368 51.5244 24.5887 50.9724 24.9216C50.4444 25.2308 49.7244 25.3854 48.8124 25.3854C48.1644 25.3854 47.5044 25.1952 46.8324 24.8146C46.1844 24.4103 45.6444 23.7919 45.2124 22.9595C44.7804 22.1033 44.5644 21.045 44.5644 19.7845C44.5644 17.0732 44.6124 14.7781 44.7084 12.8992C44.8284 10.6636 44.8884 7.84525 44.8884 4.44424C44.8884 3.37399 44.9484 2.62481 45.0684 2.19671C45.2124 1.86375 45.4404 1.61402 45.7524 1.44754C46.0884 1.25727 46.4364 1.16214 46.7964 1.16214C47.1564 1.16214 47.4684 1.2216 47.7324 1.34052C48.0204 1.45943 48.2124 1.6497 48.3084 1.91132C48.4044 2.19671 48.4644 2.48211 48.4884 2.76751C48.5364 3.02913 48.5604 3.40966 48.5604 3.90911C48.5604 4.88423 48.5244 5.82367 48.4524 6.72743C48.4044 7.82146 48.3804 8.6182 48.3804 9.11765C48.1884 13.3035 48.0924 16.8353 48.0924 19.7131ZM56.5918 2.33941C57.4318 2.41076 58.1638 2.63671 58.7878 3.01724C59.4118 3.37399 59.7238 3.921 59.7238 4.65829C59.7238 5.2053 59.4598 5.64529 58.9318 5.97826C58.4278 6.28744 57.8158 6.44203 57.0958 6.44203C56.3998 6.44203 55.9198 6.26366 55.6558 5.90691C55.3918 5.55016 55.2598 5.18152 55.2598 4.80098C55.2598 4.08749 55.3318 3.4929 55.4758 3.01724C55.6438 2.54157 56.0158 2.31563 56.5918 2.33941ZM59.4718 18.1434V19.178C59.4718 20.1055 59.4958 20.9855 59.5438 21.8179C59.6158 22.6266 59.6998 23.4471 59.7958 24.2795C59.7958 24.5649 59.6278 24.8265 59.2918 25.0643C58.9558 25.2784 58.6438 25.3854 58.3558 25.3854C57.8998 25.3854 57.4318 25.3022 56.9518 25.1357C56.4958 24.9454 56.2198 24.7195 56.1238 24.4579C55.9798 23.6968 55.9078 23.019 55.9078 22.4244C55.9078 20.4742 55.8478 18.2861 55.7278 15.8602C55.6318 13.7197 55.5838 12.2214 55.5838 11.3652C55.5838 10.9371 55.7998 10.5684 56.2318 10.2592C56.6638 9.95007 57.1198 9.79548 57.5998 9.79548C58.2958 9.79548 58.7758 9.95007 59.0398 10.2592C59.3278 10.5684 59.4718 11.056 59.4718 11.7219V18.1434ZM76.6347 9.51008C77.1147 9.51008 77.4867 9.62899 77.7507 9.86683C78.0387 10.0809 78.1827 10.3544 78.1827 10.6873C78.1827 10.9252 78.1347 11.1749 78.0387 11.4365C77.9667 11.6744 77.8827 11.9241 77.7867 12.1857C77.2347 13.47 76.0707 15.2656 74.2947 17.5726C76.1187 19.9034 77.5947 21.4017 78.7227 22.0677C78.8187 22.1152 78.9987 22.1985 79.2627 22.3174C79.5267 22.4363 79.7307 22.579 79.8747 22.7455C80.0427 22.912 80.1267 23.1022 80.1267 23.3163C80.1267 23.8395 79.9227 24.2676 79.5147 24.6006C79.1307 24.9098 78.6627 25.0643 78.1107 25.0643C77.1747 25.0643 76.1547 24.553 75.0507 23.5303C73.9467 22.4839 73.0107 21.3898 72.2427 20.2482C71.6907 21.0806 71.0547 21.9131 70.3347 22.7455C69.6387 23.5541 68.9907 24.2438 68.3907 24.8146C68.1507 25.0762 67.8627 25.2784 67.5267 25.4211C67.2147 25.5638 66.9027 25.6351 66.5907 25.6351C66.1587 25.6351 65.7747 25.54 65.4387 25.3497C65.1027 25.1595 64.9347 24.8265 64.9347 24.3508C64.9347 24.2319 65.0187 24.0417 65.1867 23.78C65.3547 23.4946 65.4507 23.3282 65.4747 23.2806C65.7627 22.7812 66.1467 22.2698 66.6267 21.7466C67.1067 21.1996 67.4067 20.8547 67.5267 20.712C67.8147 20.3553 68.1267 20.0104 68.4627 19.6774C68.6547 19.4634 68.9427 19.1304 69.3267 18.6785C69.7107 18.2267 69.9747 17.8699 70.1187 17.6083L68.8587 15.8959C68.2587 15.2062 67.7427 14.6592 67.3107 14.2548C66.8787 13.8267 66.5307 13.6127 66.2667 13.6127C65.8827 13.6127 65.5227 13.7197 65.1867 13.9338C64.8987 14.124 64.6107 14.2192 64.3227 14.2192C64.0107 14.2192 63.7707 14.1478 63.6027 14.0051C63.4347 13.8386 63.3507 13.6603 63.3507 13.47C63.3507 12.6614 63.6747 11.9716 64.3227 11.4008C64.9707 10.8063 65.7867 10.509 66.7707 10.509C67.7067 10.509 68.5347 10.83 69.2547 11.4722C69.9987 12.0906 70.7307 12.923 71.4507 13.9694C71.5467 14.0646 71.6547 14.2192 71.7747 14.4332C71.8947 14.6473 72.0147 14.8256 72.1347 14.9683C72.3987 14.5878 72.8787 13.8505 73.5747 12.7565C74.3187 11.4484 74.7627 10.6992 74.9067 10.509C75.4107 9.84304 75.9867 9.51008 76.6347 9.51008Z" fill="white"/>
</g>
<defs>
<clipPath id="clip0_84_5636">
<rect width="80" height="25.7652" fill="white" transform="translate(0.5 0.468262)"/>
</clipPath>
</defs>
</svg>
