<svg width="51" height="62" viewBox="0 0 51 62" fill="none" xmlns="http://www.w3.org/2000/svg">
<path d="M50.3465 14.5621C50.3258 14.5503 50.3038 14.5435 50.2832 14.5332L41.831 9.52765C41.3051 10.1424 40.5866 10.5509 39.7984 10.6839C39.0115 10.817 38.2039 10.6661 37.5126 10.2572C36.8212 9.8478 36.2888 9.20538 36.0072 8.43938C35.7267 7.67339 35.7125 6.8311 35.9697 6.05597L27.4581 1.01599C27.2294 0.881149 26.958 0.844723 26.7035 0.91466C26.4489 0.984597 26.2305 1.15533 26.0987 1.38925L0.830173 46.255L0.828872 46.2576C0.762971 46.3729 0.720348 46.5014 0.70355 46.6338C0.686752 46.7676 0.695783 46.9014 0.72938 47.0312C0.762976 47.161 0.821119 47.2815 0.901234 47.3888C0.980057 47.4948 1.07957 47.5835 1.19328 47.6511L9.70744 52.6844C10.2346 52.0712 10.9518 51.6632 11.7387 51.5294C12.5257 51.3969 13.3333 51.5479 14.0246 51.9559C14.7159 52.3652 15.247 53.0063 15.5287 53.7706C15.8117 54.5349 15.8259 55.3759 15.5726 56.1508L23.977 61.1193C24.0106 61.1458 24.0429 61.1736 24.0803 61.1961C24.194 61.2637 24.3181 61.306 24.4486 61.3246C24.5778 61.3418 24.7096 61.3325 24.835 61.2981C24.9616 61.2636 25.0792 61.204 25.1839 61.1219C25.2872 61.0411 25.3738 60.9391 25.4397 60.8226V60.8239L50.7096 15.9552C50.7755 15.8392 50.8181 15.7113 50.8349 15.5784C50.8517 15.4455 50.844 15.3107 50.8091 15.1813C50.7755 15.0519 50.7173 14.9307 50.6385 14.8243C50.5584 14.7181 50.4589 14.629 50.3465 14.5621ZM43.0999 18.0449L23.4007 53.0209C23.3348 53.1374 23.2482 53.2394 23.1448 53.3202C23.0414 53.4024 22.9226 53.4619 22.7972 53.4964C22.6706 53.5308 22.5388 53.5401 22.4095 53.5229C22.2803 53.5057 22.155 53.462 22.0413 53.3944L8.8042 45.5596C8.69049 45.492 8.59101 45.4033 8.51219 45.2973C8.43207 45.1913 8.37389 45.0695 8.34029 44.941C8.3067 44.8112 8.29767 44.6761 8.31446 44.5436C8.33255 44.4112 8.37392 44.2827 8.43983 44.1675L28.1391 9.19108C28.2709 8.95703 28.488 8.7863 28.7425 8.71636C28.9971 8.64642 29.2684 8.68285 29.4972 8.81795L42.7368 16.6534C42.8493 16.7202 42.9488 16.8092 43.0276 16.9153C43.1077 17.0215 43.1658 17.1426 43.1994 17.2719C43.233 17.4011 43.2421 17.5359 43.2253 17.6686C43.2072 17.8012 43.1658 17.9291 43.0999 18.0449Z" fill="#E95102"/>
<path d="M32.4898 30.171L28.2967 29.3715L27.7075 25.2623C27.6984 25.2016 27.6713 25.1452 27.63 25.1011C27.5886 25.0569 27.5343 25.0269 27.4762 25.0155C27.4168 25.004 27.356 25.0114 27.3017 25.0369C27.2475 25.0623 27.2023 25.1044 27.1713 25.1574L25.1387 28.768L21.049 27.9887C20.9908 27.9775 20.9301 27.9853 20.8758 28.0109C20.8215 28.0365 20.7763 28.0785 20.7466 28.1314C20.7169 28.1843 20.704 28.2452 20.7091 28.3062C20.7143 28.367 20.7375 28.4247 20.7763 28.4713L23.4808 31.7125L21.4457 35.322C21.4159 35.3763 21.403 35.4372 21.4095 35.4982C21.4146 35.5604 21.4392 35.6187 21.478 35.665C21.5167 35.7114 21.5697 35.7432 21.6278 35.7578C21.686 35.7723 21.7467 35.7684 21.8023 35.7458L25.5677 34.2146L28.3407 37.538C28.3794 37.583 28.4311 37.6161 28.4893 37.6307C28.5461 37.6453 28.6068 37.6413 28.6624 37.6201C28.718 37.5989 28.7645 37.5605 28.7981 37.5102C28.8317 37.4598 28.8498 37.4002 28.8485 37.3393L28.7761 32.8835L32.5777 30.7191C32.6294 30.689 32.672 30.6436 32.6978 30.5888C32.7237 30.5339 32.7327 30.4725 32.7237 30.4122C32.7134 30.3523 32.6849 30.2971 32.6436 30.2541C32.6022 30.2109 32.548 30.1819 32.4898 30.171Z" fill="#E95102"/>
</svg>
