<svg width="360" height="363" viewBox="0 0 360 363" fill="none" xmlns="http://www.w3.org/2000/svg">
<rect width="360" height="363" rx="19" fill="#353A3E"/>
<path d="M211.11 298.808V266.26H218.093L217.657 280.289H218.156C218.405 276.715 218.904 273.846 219.652 271.685C220.442 269.523 221.44 267.965 222.645 267.009C223.85 266.011 225.201 265.512 226.698 265.512C227.404 265.512 228.111 265.616 228.818 265.824C229.566 265.99 230.293 266.26 231 266.635L230.564 275.239C229.774 274.823 229.005 274.512 228.257 274.304C227.508 274.096 226.781 273.992 226.074 273.992C224.578 273.992 223.289 274.491 222.209 275.488C221.169 276.486 220.359 277.962 219.777 279.915C219.236 281.827 218.966 284.155 218.966 286.899V298.808H211.11Z" fill="white"/>
<path d="M198.08 298.808V266.26H205.998V298.808H198.08ZM202.008 263.018C200.428 263.018 199.223 262.686 198.392 262.021C197.602 261.356 197.207 260.399 197.207 259.152C197.207 257.864 197.623 256.887 198.454 256.222C199.285 255.557 200.47 255.224 202.008 255.224C203.587 255.224 204.772 255.578 205.562 256.284C206.393 256.949 206.809 257.905 206.809 259.152C206.809 260.399 206.393 261.356 205.562 262.021C204.772 262.686 203.587 263.018 202.008 263.018Z" fill="white"/>
<path d="M129.214 298.808V266.26H136.072L135.636 280.601H136.197C136.447 277.151 137.008 274.304 137.881 272.059C138.754 269.814 139.98 268.152 141.559 267.071C143.18 265.949 145.176 265.388 147.545 265.388C151.161 265.388 153.863 266.635 155.651 269.129C157.438 271.623 158.332 275.405 158.332 280.476V298.808H150.413V281.225C150.413 278.19 149.977 275.966 149.104 274.553C148.272 273.098 146.88 272.371 144.926 272.371C143.305 272.371 141.913 272.932 140.749 274.054C139.585 275.135 138.691 276.86 138.068 279.229C137.444 281.599 137.132 284.675 137.132 288.457V298.808H129.214Z" fill="white"/>
<path d="M178.575 264.967C187.901 264.967 195.462 272.527 195.462 281.853C195.462 291.179 187.901 298.74 178.575 298.74C169.249 298.74 161.688 291.18 161.688 281.853C161.688 272.527 169.249 264.967 178.575 264.967ZM178.6 270.174C175.873 267.447 171.565 267.334 168.979 269.921C163.805 275.094 164.032 283.709 169.484 289.162C174.938 294.615 183.553 294.842 188.727 289.669C186.14 292.255 181.832 292.142 179.105 289.416C176.464 286.774 176.275 282.649 178.618 280.042L179.087 279.548C181.43 276.941 181.241 272.815 178.6 270.174ZM186.151 282.222C184.849 280.92 182.724 280.933 181.404 282.253C180.085 283.572 180.072 285.698 181.374 287C182.676 288.302 184.802 288.289 186.121 286.969C187.44 285.65 187.454 283.525 186.151 282.222ZM171.679 272.526C172.998 271.207 175.123 271.194 176.425 272.496C177.727 273.798 177.714 275.923 176.395 277.242C175.075 278.561 172.95 278.575 171.647 277.273C170.345 275.971 170.359 273.845 171.679 272.526Z" fill="white"/>
<path d="M110.355 181.555V183.383C110.355 184.578 110.199 185.66 109.887 186.629C109.582 187.59 109.137 188.414 108.551 189.102C107.973 189.789 107.277 190.316 106.465 190.684C105.652 191.051 104.738 191.234 103.723 191.234C102.73 191.234 101.824 191.051 101.004 190.684C100.191 190.316 99.4922 189.789 98.9062 189.102C98.3203 188.414 97.8672 187.59 97.5469 186.629C97.2266 185.66 97.0664 184.578 97.0664 183.383V181.555C97.0664 180.359 97.2227 179.281 97.5352 178.32C97.8555 177.352 98.3086 176.523 98.8945 175.836C99.4805 175.148 100.18 174.621 100.992 174.254C101.805 173.887 102.707 173.703 103.699 173.703C104.715 173.703 105.629 173.887 106.441 174.254C107.254 174.621 107.953 175.148 108.539 175.836C109.125 176.523 109.574 177.352 109.887 178.32C110.199 179.281 110.355 180.359 110.355 181.555ZM108.926 183.383V181.531C108.926 180.523 108.809 179.617 108.574 178.812C108.348 178.008 108.008 177.32 107.555 176.75C107.109 176.18 106.562 175.742 105.914 175.438C105.266 175.133 104.527 174.98 103.699 174.98C102.895 174.98 102.172 175.133 101.531 175.438C100.891 175.742 100.344 176.18 99.8906 176.75C99.4453 177.32 99.1016 178.008 98.8594 178.812C98.625 179.617 98.5078 180.523 98.5078 181.531V183.383C98.5078 184.398 98.625 185.312 98.8594 186.125C99.1016 186.93 99.4492 187.621 99.9023 188.199C100.355 188.77 100.902 189.207 101.543 189.512C102.191 189.816 102.918 189.969 103.723 189.969C104.559 189.969 105.297 189.816 105.938 189.512C106.578 189.207 107.121 188.77 107.566 188.199C108.012 187.621 108.348 186.93 108.574 186.125C108.809 185.312 108.926 184.398 108.926 183.383ZM112.898 184.859V184.473C112.898 183.551 113.031 182.699 113.297 181.918C113.562 181.137 113.941 180.461 114.434 179.891C114.934 179.32 115.531 178.879 116.227 178.566C116.922 178.246 117.695 178.086 118.547 178.086C119.406 178.086 120.184 178.246 120.879 178.566C121.574 178.879 122.172 179.32 122.672 179.891C123.172 180.461 123.555 181.137 123.82 181.918C124.086 182.699 124.219 183.551 124.219 184.473V184.859C124.219 185.781 124.086 186.633 123.82 187.414C123.555 188.188 123.172 188.859 122.672 189.43C122.18 190 121.586 190.445 120.891 190.766C120.195 191.078 119.422 191.234 118.57 191.234C117.711 191.234 116.934 191.078 116.238 190.766C115.543 190.445 114.945 190 114.445 189.43C113.945 188.859 113.562 188.188 113.297 187.414C113.031 186.633 112.898 185.781 112.898 184.859ZM114.293 184.473V184.859C114.293 185.555 114.387 186.215 114.574 186.84C114.762 187.457 115.035 188.008 115.395 188.492C115.754 188.969 116.199 189.344 116.73 189.617C117.262 189.891 117.875 190.027 118.57 190.027C119.258 190.027 119.863 189.891 120.387 189.617C120.918 189.344 121.363 188.969 121.723 188.492C122.082 188.008 122.352 187.457 122.531 186.84C122.719 186.215 122.812 185.555 122.812 184.859V184.473C122.812 183.785 122.719 183.133 122.531 182.516C122.352 181.898 122.078 181.348 121.711 180.863C121.352 180.379 120.906 179.996 120.375 179.715C119.844 179.434 119.234 179.293 118.547 179.293C117.859 179.293 117.25 179.434 116.719 179.715C116.195 179.996 115.75 180.379 115.383 180.863C115.023 181.348 114.75 181.898 114.562 182.516C114.383 183.133 114.293 183.785 114.293 184.473ZM128.508 180.758V195.875H127.102V178.32H128.414L128.508 180.758ZM137.32 184.543V184.789C137.32 185.734 137.211 186.602 136.992 187.391C136.773 188.18 136.457 188.863 136.043 189.441C135.637 190.012 135.133 190.453 134.531 190.766C133.93 191.078 133.246 191.234 132.48 191.234C131.723 191.234 131.047 191.117 130.453 190.883C129.859 190.648 129.348 190.316 128.918 189.887C128.496 189.449 128.156 188.941 127.898 188.363C127.648 187.777 127.473 187.137 127.371 186.441V183.195C127.488 182.43 127.68 181.734 127.945 181.109C128.211 180.484 128.551 179.945 128.965 179.492C129.387 179.039 129.887 178.691 130.465 178.449C131.043 178.207 131.703 178.086 132.445 178.086C133.219 178.086 133.906 178.238 134.508 178.543C135.117 178.84 135.629 179.273 136.043 179.844C136.465 180.406 136.781 181.086 136.992 181.883C137.211 182.672 137.32 183.559 137.32 184.543ZM135.914 184.789V184.543C135.914 183.801 135.836 183.113 135.68 182.48C135.531 181.848 135.301 181.297 134.988 180.828C134.684 180.352 134.293 179.98 133.816 179.715C133.348 179.449 132.789 179.316 132.141 179.316C131.469 179.316 130.895 179.43 130.418 179.656C129.949 179.875 129.559 180.168 129.246 180.535C128.934 180.895 128.688 181.289 128.508 181.719C128.328 182.148 128.195 182.57 128.109 182.984V186.723C128.258 187.316 128.496 187.867 128.824 188.375C129.152 188.875 129.59 189.277 130.137 189.582C130.691 189.879 131.367 190.027 132.164 190.027C132.805 190.027 133.359 189.895 133.828 189.629C134.297 189.363 134.684 188.992 134.988 188.516C135.301 188.039 135.531 187.484 135.68 186.852C135.836 186.219 135.914 185.531 135.914 184.789ZM148.031 187.766C148.031 187.422 147.945 187.082 147.773 186.746C147.602 186.41 147.27 186.102 146.777 185.82C146.293 185.539 145.578 185.301 144.633 185.105C143.93 184.949 143.301 184.773 142.746 184.578C142.199 184.383 141.738 184.148 141.363 183.875C140.988 183.602 140.703 183.273 140.508 182.891C140.312 182.508 140.215 182.055 140.215 181.531C140.215 181.062 140.316 180.621 140.52 180.207C140.73 179.785 141.027 179.418 141.41 179.105C141.801 178.785 142.27 178.535 142.816 178.355C143.371 178.176 143.992 178.086 144.68 178.086C145.656 178.086 146.492 178.254 147.188 178.59C147.891 178.918 148.426 179.367 148.793 179.938C149.168 180.508 149.355 181.152 149.355 181.871H147.961C147.961 181.434 147.832 181.02 147.574 180.629C147.324 180.238 146.953 179.918 146.461 179.668C145.977 179.418 145.383 179.293 144.68 179.293C143.953 179.293 143.363 179.402 142.91 179.621C142.457 179.84 142.125 180.117 141.914 180.453C141.711 180.789 141.609 181.137 141.609 181.496C141.609 181.777 141.652 182.035 141.738 182.27C141.832 182.496 141.996 182.707 142.23 182.902C142.473 183.098 142.816 183.281 143.262 183.453C143.707 183.625 144.285 183.793 144.996 183.957C146.02 184.184 146.855 184.461 147.504 184.789C148.16 185.109 148.645 185.508 148.957 185.984C149.27 186.453 149.426 187.023 149.426 187.695C149.426 188.219 149.316 188.699 149.098 189.137C148.879 189.566 148.562 189.938 148.148 190.25C147.742 190.562 147.25 190.805 146.672 190.977C146.102 191.148 145.461 191.234 144.75 191.234C143.68 191.234 142.773 191.059 142.031 190.707C141.297 190.348 140.738 189.879 140.355 189.301C139.98 188.715 139.793 188.094 139.793 187.438H141.188C141.234 188.094 141.441 188.613 141.809 188.996C142.176 189.371 142.625 189.637 143.156 189.793C143.695 189.949 144.227 190.027 144.75 190.027C145.469 190.027 146.07 189.922 146.555 189.711C147.039 189.5 147.406 189.223 147.656 188.879C147.906 188.535 148.031 188.164 148.031 187.766ZM154.172 173.938L154.09 186.242H152.801L152.719 173.938H154.172ZM152.566 190.168C152.566 189.902 152.648 189.68 152.812 189.5C152.984 189.312 153.223 189.219 153.527 189.219C153.824 189.219 154.059 189.312 154.23 189.5C154.41 189.68 154.5 189.902 154.5 190.168C154.5 190.426 154.41 190.648 154.23 190.836C154.059 191.016 153.824 191.105 153.527 191.105C153.223 191.105 152.984 191.016 152.812 190.836C152.648 190.648 152.566 190.426 152.566 190.168ZM169.453 173.938V191H168.023V173.938H169.453ZM175.301 173.938V175.18H162.188V173.938H175.301ZM179.145 173V191H177.75V173H179.145ZM178.828 183.875L178.207 183.523C178.254 182.773 178.406 182.07 178.664 181.414C178.922 180.758 179.27 180.18 179.707 179.68C180.152 179.18 180.672 178.789 181.266 178.508C181.867 178.227 182.531 178.086 183.258 178.086C183.891 178.086 184.457 178.172 184.957 178.344C185.457 178.516 185.883 178.789 186.234 179.164C186.586 179.539 186.852 180.02 187.031 180.605C187.219 181.191 187.312 181.906 187.312 182.75V191H185.906V182.738C185.906 181.863 185.785 181.18 185.543 180.688C185.301 180.188 184.957 179.832 184.512 179.621C184.066 179.41 183.539 179.305 182.93 179.305C182.258 179.305 181.668 179.453 181.16 179.75C180.66 180.039 180.238 180.418 179.895 180.887C179.559 181.348 179.301 181.844 179.121 182.375C178.941 182.898 178.844 183.398 178.828 183.875ZM192.48 178.32V191H191.086V178.32H192.48ZM190.84 174.652C190.84 174.387 190.922 174.164 191.086 173.984C191.258 173.797 191.492 173.703 191.789 173.703C192.086 173.703 192.32 173.797 192.492 173.984C192.672 174.164 192.762 174.387 192.762 174.652C192.762 174.91 192.672 175.133 192.492 175.32C192.32 175.5 192.086 175.59 191.789 175.59C191.492 175.59 191.258 175.5 191.086 175.32C190.922 175.133 190.84 174.91 190.84 174.652ZM203.906 187.766C203.906 187.422 203.82 187.082 203.648 186.746C203.477 186.41 203.145 186.102 202.652 185.82C202.168 185.539 201.453 185.301 200.508 185.105C199.805 184.949 199.176 184.773 198.621 184.578C198.074 184.383 197.613 184.148 197.238 183.875C196.863 183.602 196.578 183.273 196.383 182.891C196.188 182.508 196.09 182.055 196.09 181.531C196.09 181.062 196.191 180.621 196.395 180.207C196.605 179.785 196.902 179.418 197.285 179.105C197.676 178.785 198.145 178.535 198.691 178.355C199.246 178.176 199.867 178.086 200.555 178.086C201.531 178.086 202.367 178.254 203.062 178.59C203.766 178.918 204.301 179.367 204.668 179.938C205.043 180.508 205.23 181.152 205.23 181.871H203.836C203.836 181.434 203.707 181.02 203.449 180.629C203.199 180.238 202.828 179.918 202.336 179.668C201.852 179.418 201.258 179.293 200.555 179.293C199.828 179.293 199.238 179.402 198.785 179.621C198.332 179.84 198 180.117 197.789 180.453C197.586 180.789 197.484 181.137 197.484 181.496C197.484 181.777 197.527 182.035 197.613 182.27C197.707 182.496 197.871 182.707 198.105 182.902C198.348 183.098 198.691 183.281 199.137 183.453C199.582 183.625 200.16 183.793 200.871 183.957C201.895 184.184 202.73 184.461 203.379 184.789C204.035 185.109 204.52 185.508 204.832 185.984C205.145 186.453 205.301 187.023 205.301 187.695C205.301 188.219 205.191 188.699 204.973 189.137C204.754 189.566 204.438 189.938 204.023 190.25C203.617 190.562 203.125 190.805 202.547 190.977C201.977 191.148 201.336 191.234 200.625 191.234C199.555 191.234 198.648 191.059 197.906 190.707C197.172 190.348 196.613 189.879 196.23 189.301C195.855 188.715 195.668 188.094 195.668 187.438H197.062C197.109 188.094 197.316 188.613 197.684 188.996C198.051 189.371 198.5 189.637 199.031 189.793C199.57 189.949 200.102 190.027 200.625 190.027C201.344 190.027 201.945 189.922 202.43 189.711C202.914 189.5 203.281 189.223 203.531 188.879C203.781 188.535 203.906 188.164 203.906 187.766ZM215.719 180.758V195.875H214.312V178.32H215.625L215.719 180.758ZM224.531 184.543V184.789C224.531 185.734 224.422 186.602 224.203 187.391C223.984 188.18 223.668 188.863 223.254 189.441C222.848 190.012 222.344 190.453 221.742 190.766C221.141 191.078 220.457 191.234 219.691 191.234C218.934 191.234 218.258 191.117 217.664 190.883C217.07 190.648 216.559 190.316 216.129 189.887C215.707 189.449 215.367 188.941 215.109 188.363C214.859 187.777 214.684 187.137 214.582 186.441V183.195C214.699 182.43 214.891 181.734 215.156 181.109C215.422 180.484 215.762 179.945 216.176 179.492C216.598 179.039 217.098 178.691 217.676 178.449C218.254 178.207 218.914 178.086 219.656 178.086C220.43 178.086 221.117 178.238 221.719 178.543C222.328 178.84 222.84 179.273 223.254 179.844C223.676 180.406 223.992 181.086 224.203 181.883C224.422 182.672 224.531 183.559 224.531 184.543ZM223.125 184.789V184.543C223.125 183.801 223.047 183.113 222.891 182.48C222.742 181.848 222.512 181.297 222.199 180.828C221.895 180.352 221.504 179.98 221.027 179.715C220.559 179.449 220 179.316 219.352 179.316C218.68 179.316 218.105 179.43 217.629 179.656C217.16 179.875 216.77 180.168 216.457 180.535C216.145 180.895 215.898 181.289 215.719 181.719C215.539 182.148 215.406 182.57 215.32 182.984V186.723C215.469 187.316 215.707 187.867 216.035 188.375C216.363 188.875 216.801 189.277 217.348 189.582C217.902 189.879 218.578 190.027 219.375 190.027C220.016 190.027 220.57 189.895 221.039 189.629C221.508 189.363 221.895 188.992 222.199 188.516C222.512 188.039 222.742 187.484 222.891 186.852C223.047 186.219 223.125 185.531 223.125 184.789ZM235.359 188.727V182.188C235.359 181.586 235.234 181.066 234.984 180.629C234.734 180.191 234.367 179.855 233.883 179.621C233.398 179.387 232.801 179.27 232.09 179.27C231.434 179.27 230.848 179.387 230.332 179.621C229.824 179.848 229.422 180.156 229.125 180.547C228.836 180.93 228.691 181.355 228.691 181.824L227.285 181.812C227.285 181.336 227.402 180.875 227.637 180.43C227.871 179.984 228.203 179.586 228.633 179.234C229.062 178.883 229.574 178.605 230.168 178.402C230.77 178.191 231.43 178.086 232.148 178.086C233.055 178.086 233.852 178.238 234.539 178.543C235.234 178.848 235.777 179.305 236.168 179.914C236.559 180.523 236.754 181.289 236.754 182.211V188.34C236.754 188.777 236.785 189.23 236.848 189.699C236.918 190.168 237.016 190.555 237.141 190.859V191H235.652C235.559 190.719 235.484 190.367 235.43 189.945C235.383 189.516 235.359 189.109 235.359 188.727ZM235.688 183.617L235.711 184.695H232.957C232.238 184.695 231.594 184.762 231.023 184.895C230.461 185.02 229.984 185.207 229.594 185.457C229.203 185.699 228.902 185.992 228.691 186.336C228.488 186.68 228.387 187.07 228.387 187.508C228.387 187.961 228.5 188.375 228.727 188.75C228.961 189.125 229.289 189.426 229.711 189.652C230.141 189.871 230.648 189.98 231.234 189.98C232.016 189.98 232.703 189.836 233.297 189.547C233.898 189.258 234.395 188.879 234.785 188.41C235.176 187.941 235.438 187.43 235.57 186.875L236.18 187.684C236.078 188.074 235.891 188.477 235.617 188.891C235.352 189.297 235.004 189.68 234.574 190.039C234.145 190.391 233.637 190.68 233.051 190.906C232.473 191.125 231.816 191.234 231.082 191.234C230.254 191.234 229.531 191.078 228.914 190.766C228.305 190.453 227.828 190.027 227.484 189.488C227.148 188.941 226.98 188.324 226.98 187.637C226.98 187.012 227.113 186.453 227.379 185.961C227.645 185.461 228.027 185.039 228.527 184.695C229.035 184.344 229.645 184.078 230.355 183.898C231.074 183.711 231.879 183.617 232.77 183.617H235.688ZM248.859 178.32H250.16V190.777C250.16 191.879 249.949 192.824 249.527 193.613C249.113 194.402 248.523 195.008 247.758 195.43C247 195.852 246.105 196.062 245.074 196.062C244.551 196.062 244.012 195.98 243.457 195.816C242.91 195.66 242.391 195.418 241.898 195.09C241.414 194.77 241 194.371 240.656 193.895L241.441 193.039C241.957 193.664 242.508 194.121 243.094 194.41C243.68 194.707 244.312 194.855 244.992 194.855C245.797 194.855 246.477 194.695 247.031 194.375C247.594 194.055 248.02 193.594 248.309 192.992C248.605 192.391 248.754 191.668 248.754 190.824V181.109L248.859 178.32ZM239.953 184.789V184.543C239.953 183.559 240.062 182.672 240.281 181.883C240.508 181.086 240.832 180.406 241.254 179.844C241.676 179.273 242.188 178.84 242.789 178.543C243.398 178.238 244.086 178.086 244.852 178.086C245.586 178.086 246.238 178.207 246.809 178.449C247.379 178.691 247.871 179.039 248.285 179.492C248.699 179.945 249.031 180.484 249.281 181.109C249.539 181.734 249.727 182.43 249.844 183.195V186.324C249.75 187.043 249.578 187.703 249.328 188.305C249.078 188.898 248.746 189.418 248.332 189.863C247.918 190.301 247.418 190.641 246.832 190.883C246.254 191.117 245.586 191.234 244.828 191.234C244.07 191.234 243.391 191.078 242.789 190.766C242.188 190.453 241.676 190.012 241.254 189.441C240.832 188.863 240.508 188.18 240.281 187.391C240.062 186.602 239.953 185.734 239.953 184.789ZM241.359 184.543V184.789C241.359 185.531 241.434 186.219 241.582 186.852C241.73 187.484 241.957 188.035 242.262 188.504C242.566 188.973 242.953 189.34 243.422 189.605C243.891 189.871 244.441 190.004 245.074 190.004C245.879 190.004 246.555 189.852 247.102 189.547C247.648 189.234 248.082 188.824 248.402 188.316C248.723 187.801 248.957 187.238 249.105 186.629V182.984C249.02 182.57 248.887 182.148 248.707 181.719C248.535 181.289 248.293 180.895 247.98 180.535C247.676 180.168 247.285 179.875 246.809 179.656C246.34 179.43 245.77 179.316 245.098 179.316C244.457 179.316 243.898 179.449 243.422 179.715C242.953 179.98 242.566 180.352 242.262 180.828C241.957 181.297 241.73 181.848 241.582 182.48C241.434 183.113 241.359 183.801 241.359 184.543ZM258.727 191.234C257.898 191.234 257.137 191.082 256.441 190.777C255.754 190.473 255.152 190.043 254.637 189.488C254.129 188.934 253.734 188.277 253.453 187.52C253.18 186.754 253.043 185.918 253.043 185.012V184.508C253.043 183.531 253.188 182.648 253.477 181.859C253.766 181.07 254.164 180.395 254.672 179.832C255.18 179.27 255.758 178.84 256.406 178.543C257.062 178.238 257.75 178.086 258.469 178.086C259.273 178.086 259.988 178.23 260.613 178.52C261.238 178.801 261.762 179.203 262.184 179.727C262.613 180.242 262.938 180.855 263.156 181.566C263.375 182.27 263.484 183.047 263.484 183.898V184.754H253.887V183.559H262.09V183.395C262.074 182.684 261.93 182.02 261.656 181.402C261.391 180.777 260.992 180.27 260.461 179.879C259.93 179.488 259.266 179.293 258.469 179.293C257.875 179.293 257.328 179.418 256.828 179.668C256.336 179.918 255.91 180.277 255.551 180.746C255.199 181.207 254.926 181.758 254.73 182.398C254.543 183.031 254.449 183.734 254.449 184.508V185.012C254.449 185.715 254.551 186.371 254.754 186.98C254.965 187.582 255.262 188.113 255.645 188.574C256.035 189.035 256.496 189.395 257.027 189.652C257.559 189.91 258.145 190.039 258.785 190.039C259.535 190.039 260.199 189.902 260.777 189.629C261.355 189.348 261.875 188.906 262.336 188.305L263.215 188.984C262.941 189.391 262.598 189.766 262.184 190.109C261.777 190.453 261.289 190.727 260.719 190.93C260.148 191.133 259.484 191.234 258.727 191.234ZM105.727 206.32V219H104.332V206.32H105.727ZM104.086 202.652C104.086 202.387 104.168 202.164 104.332 201.984C104.504 201.797 104.738 201.703 105.035 201.703C105.332 201.703 105.566 201.797 105.738 201.984C105.918 202.164 106.008 202.387 106.008 202.652C106.008 202.91 105.918 203.133 105.738 203.32C105.566 203.5 105.332 203.59 105.035 203.59C104.738 203.59 104.504 203.5 104.332 203.32C104.168 203.133 104.086 202.91 104.086 202.652ZM117.152 215.766C117.152 215.422 117.066 215.082 116.895 214.746C116.723 214.41 116.391 214.102 115.898 213.82C115.414 213.539 114.699 213.301 113.754 213.105C113.051 212.949 112.422 212.773 111.867 212.578C111.32 212.383 110.859 212.148 110.484 211.875C110.109 211.602 109.824 211.273 109.629 210.891C109.434 210.508 109.336 210.055 109.336 209.531C109.336 209.062 109.438 208.621 109.641 208.207C109.852 207.785 110.148 207.418 110.531 207.105C110.922 206.785 111.391 206.535 111.938 206.355C112.492 206.176 113.113 206.086 113.801 206.086C114.777 206.086 115.613 206.254 116.309 206.59C117.012 206.918 117.547 207.367 117.914 207.938C118.289 208.508 118.477 209.152 118.477 209.871H117.082C117.082 209.434 116.953 209.02 116.695 208.629C116.445 208.238 116.074 207.918 115.582 207.668C115.098 207.418 114.504 207.293 113.801 207.293C113.074 207.293 112.484 207.402 112.031 207.621C111.578 207.84 111.246 208.117 111.035 208.453C110.832 208.789 110.73 209.137 110.73 209.496C110.73 209.777 110.773 210.035 110.859 210.27C110.953 210.496 111.117 210.707 111.352 210.902C111.594 211.098 111.938 211.281 112.383 211.453C112.828 211.625 113.406 211.793 114.117 211.957C115.141 212.184 115.977 212.461 116.625 212.789C117.281 213.109 117.766 213.508 118.078 213.984C118.391 214.453 118.547 215.023 118.547 215.695C118.547 216.219 118.438 216.699 118.219 217.137C118 217.566 117.684 217.938 117.27 218.25C116.863 218.562 116.371 218.805 115.793 218.977C115.223 219.148 114.582 219.234 113.871 219.234C112.801 219.234 111.895 219.059 111.152 218.707C110.418 218.348 109.859 217.879 109.477 217.301C109.102 216.715 108.914 216.094 108.914 215.438H110.309C110.355 216.094 110.562 216.613 110.93 216.996C111.297 217.371 111.746 217.637 112.277 217.793C112.816 217.949 113.348 218.027 113.871 218.027C114.59 218.027 115.191 217.922 115.676 217.711C116.16 217.5 116.527 217.223 116.777 216.879C117.027 216.535 117.152 216.164 117.152 215.766ZM128.977 209.027V219H127.582V206.32H128.918L128.977 209.027ZM128.66 211.875L128.039 211.523C128.086 210.773 128.238 210.07 128.496 209.414C128.754 208.758 129.102 208.18 129.539 207.68C129.984 207.18 130.504 206.789 131.098 206.508C131.699 206.227 132.363 206.086 133.09 206.086C133.723 206.086 134.289 206.172 134.789 206.344C135.289 206.516 135.715 206.789 136.066 207.164C136.418 207.539 136.684 208.02 136.863 208.605C137.051 209.191 137.145 209.906 137.145 210.75V219H135.738V210.738C135.738 209.863 135.617 209.18 135.375 208.688C135.133 208.188 134.789 207.832 134.344 207.621C133.898 207.41 133.371 207.305 132.762 207.305C132.09 207.305 131.5 207.453 130.992 207.75C130.492 208.039 130.07 208.418 129.727 208.887C129.391 209.348 129.133 209.844 128.953 210.375C128.773 210.898 128.676 211.398 128.66 211.875ZM140.004 212.859V212.473C140.004 211.551 140.137 210.699 140.402 209.918C140.668 209.137 141.047 208.461 141.539 207.891C142.039 207.32 142.637 206.879 143.332 206.566C144.027 206.246 144.801 206.086 145.652 206.086C146.512 206.086 147.289 206.246 147.984 206.566C148.68 206.879 149.277 207.32 149.777 207.891C150.277 208.461 150.66 209.137 150.926 209.918C151.191 210.699 151.324 211.551 151.324 212.473V212.859C151.324 213.781 151.191 214.633 150.926 215.414C150.66 216.188 150.277 216.859 149.777 217.43C149.285 218 148.691 218.445 147.996 218.766C147.301 219.078 146.527 219.234 145.676 219.234C144.816 219.234 144.039 219.078 143.344 218.766C142.648 218.445 142.051 218 141.551 217.43C141.051 216.859 140.668 216.188 140.402 215.414C140.137 214.633 140.004 213.781 140.004 212.859ZM141.398 212.473V212.859C141.398 213.555 141.492 214.215 141.68 214.84C141.867 215.457 142.141 216.008 142.5 216.492C142.859 216.969 143.305 217.344 143.836 217.617C144.367 217.891 144.98 218.027 145.676 218.027C146.363 218.027 146.969 217.891 147.492 217.617C148.023 217.344 148.469 216.969 148.828 216.492C149.188 216.008 149.457 215.457 149.637 214.84C149.824 214.215 149.918 213.555 149.918 212.859V212.473C149.918 211.785 149.824 211.133 149.637 210.516C149.457 209.898 149.184 209.348 148.816 208.863C148.457 208.379 148.012 207.996 147.48 207.715C146.949 207.434 146.34 207.293 145.652 207.293C144.965 207.293 144.355 207.434 143.824 207.715C143.301 207.996 142.855 208.379 142.488 208.863C142.129 209.348 141.855 209.898 141.668 210.516C141.488 211.133 141.398 211.785 141.398 212.473ZM159.023 206.32V207.469H152.672V206.32H159.023ZM155.004 203.062H156.398V215.918C156.398 216.504 156.477 216.945 156.633 217.242C156.789 217.539 156.992 217.738 157.242 217.84C157.492 217.941 157.762 217.992 158.051 217.992C158.262 217.992 158.465 217.98 158.66 217.957C158.855 217.926 159.031 217.895 159.188 217.863L159.246 219.047C159.074 219.102 158.852 219.145 158.578 219.176C158.305 219.215 158.031 219.234 157.758 219.234C157.219 219.234 156.742 219.137 156.328 218.941C155.914 218.738 155.59 218.395 155.355 217.91C155.121 217.418 155.004 216.75 155.004 215.906V203.062ZM175.535 216.727V210.188C175.535 209.586 175.41 209.066 175.16 208.629C174.91 208.191 174.543 207.855 174.059 207.621C173.574 207.387 172.977 207.27 172.266 207.27C171.609 207.27 171.023 207.387 170.508 207.621C170 207.848 169.598 208.156 169.301 208.547C169.012 208.93 168.867 209.355 168.867 209.824L167.461 209.812C167.461 209.336 167.578 208.875 167.812 208.43C168.047 207.984 168.379 207.586 168.809 207.234C169.238 206.883 169.75 206.605 170.344 206.402C170.945 206.191 171.605 206.086 172.324 206.086C173.23 206.086 174.027 206.238 174.715 206.543C175.41 206.848 175.953 207.305 176.344 207.914C176.734 208.523 176.93 209.289 176.93 210.211V216.34C176.93 216.777 176.961 217.23 177.023 217.699C177.094 218.168 177.191 218.555 177.316 218.859V219H175.828C175.734 218.719 175.66 218.367 175.605 217.945C175.559 217.516 175.535 217.109 175.535 216.727ZM175.863 211.617L175.887 212.695H173.133C172.414 212.695 171.77 212.762 171.199 212.895C170.637 213.02 170.16 213.207 169.77 213.457C169.379 213.699 169.078 213.992 168.867 214.336C168.664 214.68 168.562 215.07 168.562 215.508C168.562 215.961 168.676 216.375 168.902 216.75C169.137 217.125 169.465 217.426 169.887 217.652C170.316 217.871 170.824 217.98 171.41 217.98C172.191 217.98 172.879 217.836 173.473 217.547C174.074 217.258 174.57 216.879 174.961 216.41C175.352 215.941 175.613 215.43 175.746 214.875L176.355 215.684C176.254 216.074 176.066 216.477 175.793 216.891C175.527 217.297 175.18 217.68 174.75 218.039C174.32 218.391 173.812 218.68 173.227 218.906C172.648 219.125 171.992 219.234 171.258 219.234C170.43 219.234 169.707 219.078 169.09 218.766C168.48 218.453 168.004 218.027 167.66 217.488C167.324 216.941 167.156 216.324 167.156 215.637C167.156 215.012 167.289 214.453 167.555 213.961C167.82 213.461 168.203 213.039 168.703 212.695C169.211 212.344 169.82 212.078 170.531 211.898C171.25 211.711 172.055 211.617 172.945 211.617H175.863ZM184.242 217.652L188.309 206.32H189.75L185.004 219H183.984L184.242 217.652ZM180.562 206.32L184.676 217.688L184.898 219H183.867L179.109 206.32H180.562ZM199.582 216.727V210.188C199.582 209.586 199.457 209.066 199.207 208.629C198.957 208.191 198.59 207.855 198.105 207.621C197.621 207.387 197.023 207.27 196.312 207.27C195.656 207.27 195.07 207.387 194.555 207.621C194.047 207.848 193.645 208.156 193.348 208.547C193.059 208.93 192.914 209.355 192.914 209.824L191.508 209.812C191.508 209.336 191.625 208.875 191.859 208.43C192.094 207.984 192.426 207.586 192.855 207.234C193.285 206.883 193.797 206.605 194.391 206.402C194.992 206.191 195.652 206.086 196.371 206.086C197.277 206.086 198.074 206.238 198.762 206.543C199.457 206.848 200 207.305 200.391 207.914C200.781 208.523 200.977 209.289 200.977 210.211V216.34C200.977 216.777 201.008 217.23 201.07 217.699C201.141 218.168 201.238 218.555 201.363 218.859V219H199.875C199.781 218.719 199.707 218.367 199.652 217.945C199.605 217.516 199.582 217.109 199.582 216.727ZM199.91 211.617L199.934 212.695H197.18C196.461 212.695 195.816 212.762 195.246 212.895C194.684 213.02 194.207 213.207 193.816 213.457C193.426 213.699 193.125 213.992 192.914 214.336C192.711 214.68 192.609 215.07 192.609 215.508C192.609 215.961 192.723 216.375 192.949 216.75C193.184 217.125 193.512 217.426 193.934 217.652C194.363 217.871 194.871 217.98 195.457 217.98C196.238 217.98 196.926 217.836 197.52 217.547C198.121 217.258 198.617 216.879 199.008 216.41C199.398 215.941 199.66 215.43 199.793 214.875L200.402 215.684C200.301 216.074 200.113 216.477 199.84 216.891C199.574 217.297 199.227 217.68 198.797 218.039C198.367 218.391 197.859 218.68 197.273 218.906C196.695 219.125 196.039 219.234 195.305 219.234C194.477 219.234 193.754 219.078 193.137 218.766C192.527 218.453 192.051 218.027 191.707 217.488C191.371 216.941 191.203 216.324 191.203 215.637C191.203 215.012 191.336 214.453 191.602 213.961C191.867 213.461 192.25 213.039 192.75 212.695C193.258 212.344 193.867 212.078 194.578 211.898C195.297 211.711 196.102 211.617 196.992 211.617H199.91ZM206.297 206.32V219H204.902V206.32H206.297ZM204.656 202.652C204.656 202.387 204.738 202.164 204.902 201.984C205.074 201.797 205.309 201.703 205.605 201.703C205.902 201.703 206.137 201.797 206.309 201.984C206.488 202.164 206.578 202.387 206.578 202.652C206.578 202.91 206.488 203.133 206.309 203.32C206.137 203.5 205.902 203.59 205.605 203.59C205.309 203.59 205.074 203.5 204.902 203.32C204.738 203.133 204.656 202.91 204.656 202.652ZM211.688 201V219H210.293V201H211.688ZM223.23 216.727V210.188C223.23 209.586 223.105 209.066 222.855 208.629C222.605 208.191 222.238 207.855 221.754 207.621C221.27 207.387 220.672 207.27 219.961 207.27C219.305 207.27 218.719 207.387 218.203 207.621C217.695 207.848 217.293 208.156 216.996 208.547C216.707 208.93 216.562 209.355 216.562 209.824L215.156 209.812C215.156 209.336 215.273 208.875 215.508 208.43C215.742 207.984 216.074 207.586 216.504 207.234C216.934 206.883 217.445 206.605 218.039 206.402C218.641 206.191 219.301 206.086 220.02 206.086C220.926 206.086 221.723 206.238 222.41 206.543C223.105 206.848 223.648 207.305 224.039 207.914C224.43 208.523 224.625 209.289 224.625 210.211V216.34C224.625 216.777 224.656 217.23 224.719 217.699C224.789 218.168 224.887 218.555 225.012 218.859V219H223.523C223.43 218.719 223.355 218.367 223.301 217.945C223.254 217.516 223.23 217.109 223.23 216.727ZM223.559 211.617L223.582 212.695H220.828C220.109 212.695 219.465 212.762 218.895 212.895C218.332 213.02 217.855 213.207 217.465 213.457C217.074 213.699 216.773 213.992 216.562 214.336C216.359 214.68 216.258 215.07 216.258 215.508C216.258 215.961 216.371 216.375 216.598 216.75C216.832 217.125 217.16 217.426 217.582 217.652C218.012 217.871 218.52 217.98 219.105 217.98C219.887 217.98 220.574 217.836 221.168 217.547C221.77 217.258 222.266 216.879 222.656 216.41C223.047 215.941 223.309 215.43 223.441 214.875L224.051 215.684C223.949 216.074 223.762 216.477 223.488 216.891C223.223 217.297 222.875 217.68 222.445 218.039C222.016 218.391 221.508 218.68 220.922 218.906C220.344 219.125 219.688 219.234 218.953 219.234C218.125 219.234 217.402 219.078 216.785 218.766C216.176 218.453 215.699 218.027 215.355 217.488C215.02 216.941 214.852 216.324 214.852 215.637C214.852 215.012 214.984 214.453 215.25 213.961C215.516 213.461 215.898 213.039 216.398 212.695C216.906 212.344 217.516 212.078 218.227 211.898C218.945 211.711 219.75 211.617 220.641 211.617H223.559ZM228.363 201H229.77V216.539L229.676 219H228.363V201ZM238.594 212.543V212.789C238.594 213.734 238.484 214.602 238.266 215.391C238.047 216.18 237.73 216.863 237.316 217.441C236.902 218.012 236.395 218.453 235.793 218.766C235.199 219.078 234.516 219.234 233.742 219.234C232.984 219.234 232.312 219.117 231.727 218.883C231.141 218.641 230.641 218.301 230.227 217.863C229.812 217.418 229.48 216.898 229.23 216.305C228.98 215.703 228.805 215.043 228.703 214.324V211.195C228.82 210.43 229.008 209.734 229.266 209.109C229.523 208.484 229.855 207.945 230.262 207.492C230.676 207.039 231.168 206.691 231.738 206.449C232.316 206.207 232.977 206.086 233.719 206.086C234.492 206.086 235.18 206.238 235.781 206.543C236.391 206.84 236.902 207.273 237.316 207.844C237.73 208.406 238.047 209.086 238.266 209.883C238.484 210.672 238.594 211.559 238.594 212.543ZM237.176 212.789V212.543C237.176 211.801 237.105 211.113 236.965 210.48C236.824 209.848 236.602 209.297 236.297 208.828C236 208.352 235.617 207.98 235.148 207.715C234.68 207.449 234.117 207.316 233.461 207.316C232.789 207.316 232.215 207.43 231.738 207.656C231.27 207.875 230.879 208.168 230.566 208.535C230.262 208.895 230.02 209.289 229.84 209.719C229.66 210.148 229.527 210.57 229.441 210.984V214.629C229.574 215.215 229.805 215.766 230.133 216.281C230.461 216.797 230.902 217.215 231.457 217.535C232.012 217.848 232.688 218.004 233.484 218.004C234.125 218.004 234.676 217.871 235.137 217.605C235.605 217.34 235.988 216.973 236.285 216.504C236.59 216.035 236.812 215.484 236.953 214.852C237.102 214.219 237.176 213.531 237.176 212.789ZM243.258 201V219H241.863V201H243.258ZM251.988 219.234C251.16 219.234 250.398 219.082 249.703 218.777C249.016 218.473 248.414 218.043 247.898 217.488C247.391 216.934 246.996 216.277 246.715 215.52C246.441 214.754 246.305 213.918 246.305 213.012V212.508C246.305 211.531 246.449 210.648 246.738 209.859C247.027 209.07 247.426 208.395 247.934 207.832C248.441 207.27 249.02 206.84 249.668 206.543C250.324 206.238 251.012 206.086 251.73 206.086C252.535 206.086 253.25 206.23 253.875 206.52C254.5 206.801 255.023 207.203 255.445 207.727C255.875 208.242 256.199 208.855 256.418 209.566C256.637 210.27 256.746 211.047 256.746 211.898V212.754H247.148V211.559H255.352V211.395C255.336 210.684 255.191 210.02 254.918 209.402C254.652 208.777 254.254 208.27 253.723 207.879C253.191 207.488 252.527 207.293 251.73 207.293C251.137 207.293 250.59 207.418 250.09 207.668C249.598 207.918 249.172 208.277 248.812 208.746C248.461 209.207 248.188 209.758 247.992 210.398C247.805 211.031 247.711 211.734 247.711 212.508V213.012C247.711 213.715 247.812 214.371 248.016 214.98C248.227 215.582 248.523 216.113 248.906 216.574C249.297 217.035 249.758 217.395 250.289 217.652C250.82 217.91 251.406 218.039 252.047 218.039C252.797 218.039 253.461 217.902 254.039 217.629C254.617 217.348 255.137 216.906 255.598 216.305L256.477 216.984C256.203 217.391 255.859 217.766 255.445 218.109C255.039 218.453 254.551 218.727 253.98 218.93C253.41 219.133 252.746 219.234 251.988 219.234Z" fill="#F7F7F7"/>
<path d="M149.531 125.938V137.281H100.406L99.6094 128.375L127.547 83.75H139.125L126.562 104.562L113.859 125.938H149.531ZM142.219 83.75V152H127.594V83.75H142.219ZM203.391 111.781V123.922C203.391 128.922 202.828 133.25 201.703 136.906C200.609 140.562 199.016 143.578 196.922 145.953C194.859 148.328 192.391 150.094 189.516 151.25C186.672 152.375 183.516 152.938 180.047 152.938C177.266 152.938 174.672 152.578 172.266 151.859C169.859 151.141 167.688 150.031 165.75 148.531C163.844 147 162.203 145.094 160.828 142.812C159.453 140.531 158.391 137.812 157.641 134.656C156.922 131.5 156.562 127.922 156.562 123.922V111.781C156.562 106.719 157.109 102.375 158.203 98.75C159.328 95.125 160.938 92.125 163.031 89.75C165.125 87.375 167.594 85.625 170.438 84.5C173.312 83.375 176.484 82.8125 179.953 82.8125C182.734 82.8125 185.312 83.1719 187.688 83.8906C190.094 84.6094 192.266 85.7188 194.203 87.2188C196.141 88.7188 197.781 90.6094 199.125 92.8906C200.5 95.1719 201.547 97.8906 202.266 101.047C203.016 104.172 203.391 107.75 203.391 111.781ZM188.766 125.75V109.859C188.766 107.516 188.625 105.484 188.344 103.766C188.094 102.016 187.719 100.531 187.219 99.3125C186.75 98.0938 186.156 97.1094 185.438 96.3594C184.719 95.6094 183.891 95.0625 182.953 94.7188C182.047 94.3438 181.047 94.1562 179.953 94.1562C178.578 94.1562 177.344 94.4375 176.25 95C175.156 95.5625 174.234 96.4531 173.484 97.6719C172.734 98.8594 172.156 100.469 171.75 102.5C171.375 104.5 171.188 106.953 171.188 109.859V125.75C171.188 128.094 171.312 130.141 171.562 131.891C171.844 133.641 172.219 135.141 172.688 136.391C173.188 137.609 173.797 138.609 174.516 139.391C175.234 140.141 176.062 140.688 177 141.031C177.938 141.375 178.953 141.547 180.047 141.547C181.422 141.547 182.641 141.281 183.703 140.75C184.766 140.188 185.672 139.297 186.422 138.078C187.203 136.828 187.781 135.188 188.156 133.156C188.562 131.125 188.766 128.656 188.766 125.75ZM260.344 125.938V137.281H211.219L210.422 128.375L238.359 83.75H249.938L237.375 104.562L224.672 125.938H260.344ZM253.031 83.75V152H238.406V83.75H253.031Z" fill="#F7F7F7"/>
</svg>
