<svg width="360" height="363" viewBox="0 0 360 363" fill="none" xmlns="http://www.w3.org/2000/svg">
<rect width="360" height="363"/>
<path d="M312 180C312 223.769 290.697 262.562 257.895 286.578C236.061 302.562 209.133 312 180 312C151.329 312 124.794 302.859 103.148 287.333C69.7549 263.381 48 224.231 48 180C48 107.098 107.098 48 180 48C252.902 48 312 107.098 312 180Z" fill="#F5F5F5"/>
<circle cx="180.5" cy="151.5" r="49.5" fill="#D9D9D9"/>
<path d="M257.895 286.578C257.965 285.227 258 283.868 258 282.5C258 239.698 223.302 205 180.5 205C137.698 205 103 239.698 103 282.5C103 284.123 103.05 285.735 103.148 287.333C124.794 302.859 151.329 312 180 312C209.133 312 236.061 302.562 257.895 286.578Z" fill="#D9D9D9"/>
</svg>
