<svg width="295" height="363" viewBox="0 0 295 363" fill="none" xmlns="http://www.w3.org/2000/svg">
<rect x="-0.000244141" width="295" height="363" fill="#E9E9E9"/>
<path d="M62.0533 124.858C60.8117 120.618 63.2426 116.174 67.4828 114.932L132.307 95.9509C136.547 94.7093 140.991 97.1401 142.233 101.38L161.214 166.204C162.456 170.445 160.025 174.889 155.784 176.13L90.9604 195.112C86.7201 196.353 82.2762 193.922 81.0346 189.682L62.0533 124.858Z" fill="#CCCCCC"/>
<path d="M239.881 102.819C245.517 105.087 248.247 111.494 245.979 117.13L214.364 195.682C212.096 201.317 205.689 204.047 200.053 201.779L121.501 170.164C115.865 167.896 113.136 161.489 115.404 155.853L147.018 77.3014L147.244 76.7814C149.687 71.4999 155.87 69.0066 161.33 71.2039L239.881 102.819Z" fill="#BBBBBB" stroke="#F8F8F8" stroke-width="6"/>
<path d="M157.049 95.4322C158.699 91.3334 163.359 89.348 167.457 90.9977L221.751 112.849C225.849 114.499 227.835 119.159 226.185 123.258L204.334 177.551C202.684 181.65 198.024 183.635 193.925 181.985L139.632 160.134C135.533 158.484 133.548 153.824 135.197 149.725L157.049 95.4322Z" fill="white"/>
<path d="M146.341 134.294L170.581 123.966L175.125 148.697L217.116 133.534L201.797 171.597C200.147 175.696 195.487 177.681 191.389 176.032L145.586 157.597C141.487 155.948 139.502 151.288 141.151 147.189L146.341 134.294Z" fill="#B2B2B2"/>
<path d="M82.7576 172.633C90.3847 172.633 96.5071 175.316 100.565 180.978L100.927 181.499C104.594 186.95 106.21 194.68 106.21 204.242V242H85.1951V205.661C85.1951 200.07 84.3689 196.544 83.1609 194.588L83.1335 194.544L83.1082 194.5C82.164 192.848 80.6328 191.874 77.7917 191.874C75.4925 191.874 73.5998 192.638 71.9539 194.225L71.9333 194.245L71.9119 194.264C70.3919 195.675 68.9856 198.096 67.9011 201.869L67.6882 202.641C66.597 206.788 66.0144 212.337 66.0144 219.375V242H44.9998V174.288H64.0974L64.0027 177.379L63.8406 182.682C65.3384 180.218 67.1748 178.165 69.3787 176.584L69.7136 176.349C73.3805 173.814 77.7863 172.633 82.7576 172.633ZM196.591 174.288V242H175.576V174.288H196.591ZM232.839 172.869C234.443 172.869 236.034 173.101 237.604 173.554C239.262 173.931 240.862 174.532 242.399 175.346L244.089 176.24L243.992 178.149L243.165 194.464L242.927 199.153L238.771 196.967C237.602 196.352 236.492 195.887 235.439 195.56L234.991 195.429C233.808 195.1 232.699 194.947 231.656 194.947C229.57 194.947 227.865 195.611 226.386 196.966C224.924 198.378 223.604 200.639 222.595 204.018C221.673 207.295 221.178 211.41 221.178 216.42V242H200.283V174.288H219.619L219.522 177.381L219.416 180.791C220.463 179.131 221.657 177.711 223.021 176.574L223.29 176.355C226.076 174.067 229.29 172.869 232.839 172.869ZM186.024 153.362C189.374 153.362 192.442 154.099 194.7 156.083C197.069 158.011 198.128 160.737 198.128 163.81C198.128 166.886 197.067 169.613 194.694 171.542L194.695 171.543C192.434 173.447 189.368 174.14 186.024 174.141C182.665 174.141 179.605 173.44 177.293 171.591L177.263 171.567L177.235 171.543C174.92 169.593 173.921 166.858 173.921 163.81C173.921 160.668 174.972 157.862 177.411 155.911L177.629 155.742C179.899 154.028 182.824 153.362 186.024 153.362Z" fill="#B3B3B3" stroke="#F7F7F7" stroke-width="6"/>
<mask id="path-7-outside-1_1145_2" maskUnits="userSpaceOnUse" x="103.575" y="168.834" width="77" height="77" fill="black">
<rect fill="white" x="103.575" y="168.834" width="77" height="77"/>
<path d="M141.593 174.834C159.277 174.835 173.612 189.17 173.612 206.853C173.612 224.536 159.277 238.872 141.593 238.872C123.91 238.872 109.575 224.536 109.575 206.853C109.575 189.17 123.91 174.834 141.593 174.834ZM141.64 184.707C136.47 179.537 128.303 179.322 123.398 184.227C113.588 194.037 114.017 210.371 124.357 220.711C134.535 230.89 150.523 231.465 160.377 222.124L160.61 221.897C155.683 226.568 147.689 226.281 142.6 221.192C137.511 216.103 137.222 208.108 141.893 203.181L142.346 202.716C147.017 197.789 146.729 189.796 141.64 184.707ZM155.959 207.552C153.49 205.083 149.461 205.109 146.959 207.611C144.458 210.112 144.432 214.142 146.901 216.611C149.37 219.08 153.399 219.054 155.901 216.552C158.402 214.051 158.429 210.021 155.959 207.552ZM128.517 189.168C131.019 186.667 135.048 186.641 137.517 189.11C139.986 191.579 139.96 195.609 137.458 198.111C134.957 200.612 130.928 200.638 128.458 198.168C125.989 195.699 126.016 191.67 128.517 189.168Z"/>
</mask>
<path d="M141.593 174.834C159.277 174.835 173.612 189.17 173.612 206.853C173.612 224.536 159.277 238.872 141.593 238.872C123.91 238.872 109.575 224.536 109.575 206.853C109.575 189.17 123.91 174.834 141.593 174.834ZM141.64 184.707C136.47 179.537 128.303 179.322 123.398 184.227C113.588 194.037 114.017 210.371 124.357 220.711C134.535 230.89 150.523 231.465 160.377 222.124L160.61 221.897C155.683 226.568 147.689 226.281 142.6 221.192C137.511 216.103 137.222 208.108 141.893 203.181L142.346 202.716C147.017 197.789 146.729 189.796 141.64 184.707ZM155.959 207.552C153.49 205.083 149.461 205.109 146.959 207.611C144.458 210.112 144.432 214.142 146.901 216.611C149.37 219.08 153.399 219.054 155.901 216.552C158.402 214.051 158.429 210.021 155.959 207.552ZM128.517 189.168C131.019 186.667 135.048 186.641 137.517 189.11C139.986 191.579 139.96 195.609 137.458 198.111C134.957 200.612 130.928 200.638 128.458 198.168C125.989 195.699 126.016 191.67 128.517 189.168Z" fill="#B3B3B3"/>
<path d="M141.593 174.834L141.593 168.834H141.593V174.834ZM173.612 206.853H179.612V206.853L173.612 206.853ZM141.593 238.872V244.872H141.593L141.593 238.872ZM109.575 206.853L103.575 206.853V206.853H109.575ZM141.64 184.707L145.883 180.464L145.883 180.464L141.64 184.707ZM123.398 184.227L119.155 179.984L119.155 179.984L123.398 184.227ZM124.357 220.711L120.114 224.954L120.114 224.954L124.357 220.711ZM160.377 222.124L164.505 226.478L164.536 226.449L164.566 226.42L160.377 222.124ZM160.61 221.897L164.798 226.193L156.482 217.543L160.61 221.897ZM142.6 221.192L138.357 225.435L138.358 225.435L142.6 221.192ZM141.893 203.181L137.597 198.993L137.567 199.023L137.539 199.053L141.893 203.181ZM142.346 202.716L146.643 206.904L146.672 206.874L146.701 206.844L142.346 202.716ZM155.959 207.552L160.202 203.31L160.202 203.31L155.959 207.552ZM146.959 207.611L142.717 203.368L142.717 203.368L146.959 207.611ZM146.901 216.611L142.658 220.853L142.658 220.854L146.901 216.611ZM155.901 216.552L160.144 220.795L160.144 220.795L155.901 216.552ZM128.517 189.168L124.275 184.926L124.274 184.926L128.517 189.168ZM137.517 189.11L141.76 184.867L141.76 184.867L137.517 189.11ZM137.458 198.111L141.701 202.354L141.701 202.353L137.458 198.111ZM128.458 198.168L124.216 202.411L124.216 202.411L128.458 198.168ZM141.593 174.834L141.593 180.834C155.963 180.835 167.612 192.483 167.612 206.853L173.612 206.853L179.612 206.853C179.612 185.856 162.59 168.835 141.593 168.834L141.593 174.834ZM173.612 206.853H167.612C167.612 221.223 155.963 232.872 141.593 232.872L141.593 238.872L141.593 244.872C162.59 244.871 179.612 227.85 179.612 206.853H173.612ZM141.593 238.872V232.872C127.224 232.872 115.575 221.223 115.575 206.853H109.575H103.575C103.575 227.85 120.596 244.872 141.593 244.872V238.872ZM109.575 206.853L115.575 206.853C115.575 192.483 127.224 180.834 141.593 180.834V174.834V168.834C120.596 168.834 103.575 185.856 103.575 206.853L109.575 206.853ZM141.64 184.707L145.883 180.464C138.583 173.164 126.611 172.529 119.155 179.984L123.398 184.227L127.641 188.47C129.995 186.115 134.358 185.91 137.398 188.949L141.64 184.707ZM123.398 184.227L119.155 179.984C106.795 192.345 107.645 212.484 120.114 224.954L124.357 220.711L128.6 216.469C120.39 208.259 120.381 195.729 127.641 188.47L123.398 184.227ZM124.357 220.711L120.114 224.954C132.393 237.233 152.093 238.245 164.505 226.478L160.377 222.124L156.25 217.769C148.954 224.686 136.678 224.547 128.6 216.469L124.357 220.711ZM160.377 222.124L164.566 226.42L164.798 226.193L160.61 221.897L156.422 217.601L156.189 217.827L160.377 222.124ZM160.61 221.897L156.482 217.543C154.113 219.789 149.831 219.938 146.843 216.949L142.6 221.192L138.358 225.435C145.547 232.624 157.253 233.348 164.738 226.251L160.61 221.897ZM142.6 221.192L146.843 216.949C143.854 213.96 144.002 209.677 146.248 207.309L141.893 203.181L137.539 199.053C130.442 206.539 131.168 218.246 138.357 225.435L142.6 221.192ZM141.893 203.181L146.19 207.369L146.643 206.904L142.346 202.716L138.05 198.528L137.597 198.993L141.893 203.181ZM142.346 202.716L146.701 206.844C153.796 199.359 153.072 187.653 145.883 180.464L141.64 184.707L137.397 188.949C140.386 191.938 140.237 196.22 137.992 198.589L142.346 202.716ZM155.959 207.552L160.202 203.31C155.338 198.445 147.509 198.576 142.717 203.368L146.959 207.611L151.202 211.854C151.3 211.755 151.407 211.718 151.511 211.717C151.612 211.717 151.671 211.749 151.717 211.795L155.959 207.552ZM146.959 207.611L142.717 203.368C137.924 208.161 137.794 215.989 142.658 220.853L146.901 216.611L151.144 212.368C151.098 212.322 151.065 212.264 151.066 212.162C151.067 212.059 151.104 211.952 151.202 211.853L146.959 207.611ZM146.901 216.611L142.658 220.854C147.523 225.718 155.351 225.587 160.144 220.795L155.901 216.552L151.658 212.31C151.56 212.408 151.453 212.445 151.35 212.446C151.248 212.446 151.189 212.414 151.143 212.368L146.901 216.611ZM155.901 216.552L160.144 220.795C164.936 216.002 165.066 208.174 160.202 203.31L155.959 207.552L151.717 211.795C151.763 211.841 151.795 211.899 151.794 212.001C151.794 212.105 151.757 212.211 151.658 212.31L155.901 216.552ZM128.517 189.168L132.76 193.411C132.858 193.313 132.965 193.276 133.068 193.275C133.17 193.274 133.229 193.307 133.274 193.353L137.517 189.11L141.76 184.867C136.895 180.003 129.067 180.134 124.275 184.926L128.517 189.168ZM137.517 189.11L133.274 193.353C133.32 193.398 133.353 193.457 133.352 193.559C133.351 193.663 133.314 193.77 133.216 193.868L137.458 198.111L141.701 202.353C146.494 197.561 146.624 189.732 141.76 184.867L137.517 189.11ZM137.458 198.111L133.216 193.868C133.118 193.966 133.012 194.003 132.908 194.004C132.806 194.004 132.747 193.972 132.701 193.926L128.458 198.168L124.216 202.411C129.079 207.274 136.908 207.147 141.701 202.354L137.458 198.111ZM128.458 198.168L132.701 193.926C132.655 193.88 132.623 193.821 132.624 193.72C132.624 193.616 132.661 193.51 132.76 193.411L128.517 189.168L124.274 184.926C119.482 189.718 119.352 197.547 124.216 202.411L128.458 198.168Z" fill="#F7F7F7" mask="url(#path-7-outside-1_1145_2)"/>
<path d="M119.43 266.625V278H116.891L112.594 270.648V278H110.047V266.625H112.594L116.898 273.977V266.625H119.43ZM130.797 272.062V272.57C130.797 273.435 130.677 274.211 130.438 274.898C130.203 275.586 129.867 276.172 129.43 276.656C128.997 277.141 128.482 277.513 127.883 277.773C127.289 278.029 126.63 278.156 125.906 278.156C125.182 278.156 124.521 278.029 123.922 277.773C123.323 277.513 122.802 277.141 122.359 276.656C121.922 276.172 121.583 275.586 121.344 274.898C121.104 274.211 120.984 273.435 120.984 272.57V272.062C120.984 271.198 121.104 270.422 121.344 269.734C121.583 269.042 121.919 268.453 122.352 267.969C122.789 267.484 123.307 267.115 123.906 266.859C124.505 266.599 125.167 266.469 125.891 266.469C126.615 266.469 127.276 266.599 127.875 266.859C128.474 267.115 128.99 267.484 129.422 267.969C129.859 268.453 130.198 269.042 130.438 269.734C130.677 270.422 130.797 271.198 130.797 272.062ZM128.227 272.57V272.047C128.227 271.469 128.174 270.958 128.07 270.516C127.966 270.068 127.815 269.693 127.617 269.391C127.419 269.089 127.174 268.862 126.883 268.711C126.591 268.555 126.26 268.477 125.891 268.477C125.505 268.477 125.169 268.555 124.883 268.711C124.596 268.862 124.354 269.089 124.156 269.391C123.964 269.693 123.815 270.068 123.711 270.516C123.612 270.958 123.562 271.469 123.562 272.047V272.57C123.562 273.143 123.612 273.654 123.711 274.102C123.815 274.544 123.966 274.919 124.164 275.227C124.362 275.534 124.604 275.766 124.891 275.922C125.182 276.078 125.521 276.156 125.906 276.156C126.276 276.156 126.604 276.078 126.891 275.922C127.182 275.766 127.427 275.534 127.625 275.227C127.823 274.919 127.971 274.544 128.07 274.102C128.174 273.654 128.227 273.143 128.227 272.57ZM139.055 266.625V278H136.516V266.625H139.055ZM142.328 266.625H144.438L147.172 274.758L149.898 266.625H152.008L148.023 278H146.312L142.328 266.625ZM141.109 266.625H143.258L143.656 275.055V278H141.109V266.625ZM151.078 266.625H153.234V278H150.68V275.055L151.078 266.625ZM159.992 268.789L157.055 278H154.336L158.547 266.625H160.266L159.992 268.789ZM162.43 278L159.484 268.789L159.18 266.625H160.922L165.148 278H162.43ZM162.305 273.766V275.734H156.375V273.766H162.305ZM175.102 271.992V276.578C174.914 276.792 174.628 277.021 174.242 277.266C173.862 277.51 173.375 277.721 172.781 277.898C172.188 278.07 171.479 278.156 170.656 278.156C169.911 278.156 169.234 278.036 168.625 277.797C168.016 277.552 167.492 277.195 167.055 276.727C166.617 276.253 166.279 275.674 166.039 274.992C165.805 274.31 165.688 273.529 165.688 272.648V271.977C165.688 271.096 165.805 270.315 166.039 269.633C166.273 268.951 166.604 268.375 167.031 267.906C167.458 267.432 167.966 267.073 168.555 266.828C169.143 266.583 169.794 266.461 170.508 266.461C171.523 266.461 172.354 266.625 173 266.953C173.646 267.276 174.135 267.724 174.469 268.297C174.807 268.87 175.016 269.529 175.094 270.273H172.641C172.589 269.893 172.484 269.565 172.328 269.289C172.177 269.013 171.961 268.802 171.68 268.656C171.398 268.505 171.034 268.43 170.586 268.43C170.227 268.43 169.901 268.505 169.609 268.656C169.323 268.802 169.081 269.023 168.883 269.32C168.685 269.617 168.534 269.987 168.43 270.43C168.326 270.867 168.273 271.378 168.273 271.961V272.648C168.273 273.232 168.326 273.745 168.43 274.188C168.539 274.63 168.698 275 168.906 275.297C169.115 275.589 169.378 275.81 169.695 275.961C170.018 276.112 170.393 276.188 170.82 276.188C171.154 276.188 171.435 276.161 171.664 276.109C171.893 276.052 172.081 275.982 172.227 275.898C172.372 275.81 172.482 275.729 172.555 275.656V273.766H170.531V271.992H175.102ZM184.578 276.031V278H178.523V276.031H184.578ZM179.391 266.625V278H176.844V266.625H179.391ZM183.797 271.203V273.109H178.523V271.203H183.797ZM184.586 266.625V268.602H178.523V266.625H184.586ZM111.008 287.789L108.07 297H105.352L109.562 285.625H111.281L111.008 287.789ZM113.445 297L110.5 287.789L110.195 285.625H111.938L116.164 297H113.445ZM113.32 292.766V294.734H107.391V292.766H113.32ZM120.688 294.477L123.219 285.625H126.055L122.156 297H120.305L120.688 294.477ZM118.383 285.625L120.906 294.477L121.305 297H119.43L115.555 285.625H118.383ZM131.133 287.789L128.195 297H125.477L129.688 285.625H131.406L131.133 287.789ZM133.57 297L130.625 287.789L130.32 285.625H132.062L136.289 297H133.57ZM133.445 292.766V294.734H127.516V292.766H133.445ZM139.945 285.625V297H137.406V285.625H139.945ZM149.422 295.031V297H143.68V295.031H149.422ZM144.547 285.625V297H142V285.625H144.547ZM155.555 287.789L152.617 297H149.898L154.109 285.625H155.828L155.555 287.789ZM157.992 297L155.047 287.789L154.742 285.625H156.484L160.711 297H157.992ZM157.867 292.766V294.734H151.938V292.766H157.867ZM166.203 292.086H163.281L163.266 290.383H165.68C166.107 290.383 166.453 290.331 166.719 290.227C166.99 290.122 167.188 289.971 167.312 289.773C167.438 289.57 167.5 289.32 167.5 289.023C167.5 288.685 167.438 288.411 167.312 288.203C167.188 287.995 166.99 287.844 166.719 287.75C166.453 287.651 166.109 287.602 165.688 287.602H164.203V297H161.656V285.625H165.688C166.37 285.625 166.979 285.688 167.516 285.812C168.052 285.938 168.508 286.13 168.883 286.391C169.263 286.651 169.552 286.977 169.75 287.367C169.948 287.758 170.047 288.219 170.047 288.75C170.047 289.214 169.943 289.646 169.734 290.047C169.531 290.448 169.203 290.773 168.75 291.023C168.297 291.273 167.69 291.409 166.93 291.43L166.203 292.086ZM166.102 297H162.633L163.555 295.031H166.102C166.492 295.031 166.81 294.969 167.055 294.844C167.299 294.719 167.479 294.549 167.594 294.336C167.708 294.122 167.766 293.883 167.766 293.617C167.766 293.305 167.711 293.034 167.602 292.805C167.497 292.576 167.331 292.398 167.102 292.273C166.878 292.148 166.578 292.086 166.203 292.086H163.922L163.938 290.383H166.727L167.32 291.055C168.044 291.039 168.622 291.156 169.055 291.406C169.492 291.651 169.807 291.974 170 292.375C170.193 292.776 170.289 293.201 170.289 293.648C170.289 294.388 170.13 295.008 169.812 295.508C169.495 296.003 169.023 296.375 168.398 296.625C167.779 296.875 167.013 297 166.102 297ZM179.359 295.031V297H173.617V295.031H179.359ZM174.484 285.625V297H171.938V285.625H174.484ZM188.344 295.031V297H182.289V295.031H188.344ZM183.156 285.625V297H180.609V285.625H183.156ZM187.562 290.203V292.109H182.289V290.203H187.562ZM188.352 285.625V287.602H182.289V285.625H188.352Z" fill="#B3B3B3"/>
</svg>
