<svg width="44" height="44" viewBox="0 0 44 44" fill="none" xmlns="http://www.w3.org/2000/svg">
<path d="M21.5674 0C33.4787 0 43.1348 9.65602 43.1348 21.5674C43.1345 33.4786 33.4786 43.1348 21.5674 43.1348C9.65634 43.1345 0.000223206 33.4784 0 21.5674C0 9.65615 9.65621 0.000224566 21.5674 0ZM21.5996 6.64941C18.1172 3.167 12.6155 3.02227 9.31152 6.32617C2.70366 12.934 2.99315 23.9375 9.95801 30.9023C16.9229 37.867 27.9254 38.1556 34.5332 31.5479C31.2293 34.8518 25.7285 34.707 22.2461 31.2246C18.8727 27.8511 18.6314 22.5836 21.623 19.2539L22.2227 18.6211C25.2143 15.2913 24.9731 10.0229 21.5996 6.64941ZM31.2451 22.0381C29.582 20.3749 26.8676 20.3924 25.1826 22.0771C23.4976 23.7622 23.4803 26.4764 25.1436 28.1396C26.8068 29.8025 29.5212 29.7855 31.2061 28.1006C32.8906 26.4157 32.9079 23.7013 31.2451 22.0381ZM12.7598 9.6543C14.4448 7.96958 17.1591 7.95208 18.8223 9.61523C20.4854 11.2784 20.4679 13.9927 18.7832 15.6777C17.0982 17.3627 14.383 17.38 12.7197 15.7168C11.0569 14.0535 11.0749 11.3392 12.7598 9.6543Z" fill="white"/>
</svg>
