<svg width="130" height="56" viewBox="0 0 130 56" fill="none" xmlns="http://www.w3.org/2000/svg">
<path d="M104.597 55.6639V14.0951H113.516L112.958 32.0127H113.595C113.914 27.447 114.551 23.7839 115.507 21.0232C116.515 18.2626 117.79 16.2718 119.329 15.0507C120.869 13.7766 122.594 13.1395 124.505 13.1395C125.408 13.1395 126.31 13.2722 127.213 13.5377C128.168 13.75 129.097 14.0951 130 14.5729L129.443 25.5624C128.434 25.0315 127.452 24.6333 126.496 24.3679C125.541 24.1024 124.611 23.9697 123.709 23.9697C121.798 23.9697 120.152 24.6068 118.772 25.8809C117.444 27.155 116.409 29.0397 115.666 31.5349C114.976 33.977 114.631 36.95 114.631 40.4538V55.6639H104.597Z" fill="white"/>
<path d="M87.9547 55.6639V14.0952H98.0682V55.6639H87.9547ZM92.9716 9.95421C90.9542 9.95421 89.4147 9.52949 88.3529 8.68007C87.3442 7.83064 86.8398 6.60959 86.8398 5.01692C86.8398 3.37116 87.3707 2.12356 88.4325 1.27414C89.4943 0.424713 91.0073 0 92.9716 0C94.989 0 96.502 0.451258 97.5107 1.35377C98.5725 2.2032 99.1034 3.42425 99.1034 5.01692C99.1034 6.60959 98.5725 7.83064 97.5107 8.68007C96.502 9.52949 94.989 9.95421 92.9716 9.95421Z" fill="white"/>
<path d="M0 55.6639V14.0951H8.7597L8.20226 32.4108H8.91897C9.2375 28.0044 9.9542 24.3678 11.0691 21.501C12.1839 18.6342 13.7501 16.5107 15.7675 15.1303C17.8379 13.6969 20.3862 12.9802 23.4123 12.9802C28.031 12.9802 31.4818 14.5729 33.7647 17.7583C36.0475 20.9436 37.1889 25.7747 37.1889 32.2516V55.6639H27.0754V33.2072C27.0754 29.3317 26.518 26.4914 25.4031 24.6864C24.3413 22.8283 22.5629 21.8992 20.0677 21.8992C17.9972 21.8992 16.2187 22.6159 14.7322 24.0493C13.2457 25.4296 12.1043 27.6328 11.308 30.6589C10.5116 33.685 10.1135 37.6136 10.1135 42.4447V55.6639H0Z" fill="white"/>
<path d="M63.043 12.4432C74.9543 12.4432 84.6104 22.0993 84.6104 34.0106C84.6101 45.9218 74.9542 55.578 63.043 55.578C51.1319 55.5778 41.4758 45.9217 41.4756 34.0106C41.4756 22.0994 51.1318 12.4435 63.043 12.4432ZM63.0752 19.0927C59.5928 15.6102 54.091 15.4655 50.7871 18.7694C44.1792 25.3773 44.4687 36.3807 51.4336 43.3456C58.3985 50.3102 69.401 50.5989 76.0088 43.9911C72.7049 47.295 67.2041 47.1503 63.7217 43.6678C60.3483 40.2943 60.1069 35.0268 63.0986 31.6971L63.6982 31.0643C66.6899 27.7346 66.4486 22.4662 63.0752 19.0927ZM72.7207 34.4813C71.0575 32.8182 68.3432 32.8357 66.6582 34.5204C64.9732 36.2054 64.9559 38.9196 66.6191 40.5829C68.2824 42.2457 70.9968 42.2287 72.6816 40.5438C74.3662 38.8589 74.3834 36.1445 72.7207 34.4813ZM54.2354 22.0975C55.9204 20.4128 58.6347 20.3953 60.2979 22.0585C61.961 23.7216 61.9435 26.436 60.2588 28.121C58.5738 29.806 55.8586 29.8233 54.1953 28.16C52.5325 26.4967 52.5505 23.7824 54.2354 22.0975Z" fill="white"/>
</svg>
