<svg width="232" height="138" viewBox="0 0 232 138" fill="white" xmlns="http://www.w3.org/2000/svg">
<path d="M53.888 110H35.968V41.264C35.968 40.5813 35.712 39.984 35.2 39.472C34.7733 38.96 34.2187 38.704 33.536 38.704H26.624C25.9413 38.704 25.344 38.96 24.832 39.472C24.4053 39.984 24.192 40.5813 24.192 41.264V110H6.272V42.8C6.272 31.536 11.5627 25.904 22.144 25.904H38.016C48.5973 25.904 53.888 31.536 53.888 42.8V110ZM114.668 42.8V94.384C114.668 105.648 109.377 111.28 98.796 111.28H81.772C71.1907 111.28 65.9 105.648 65.9 94.384V42.8C65.9 31.536 71.1907 25.904 81.772 25.904H98.796C109.377 25.904 114.668 31.536 114.668 42.8ZM96.748 96.432V40.624C96.748 39.9413 96.492 39.344 95.98 38.832C95.5533 38.32 94.9987 38.064 94.316 38.064H86.252C85.5693 38.064 84.972 38.32 84.46 38.832C84.0333 39.344 83.82 39.9413 83.82 40.624V96.432C83.82 97.1147 84.0333 97.712 84.46 98.224C84.972 98.736 85.5693 98.992 86.252 98.992H94.316C94.9987 98.992 95.5533 98.736 95.98 98.224C96.492 97.712 96.748 97.1147 96.748 96.432ZM145.82 27.184V110H127.9V27.184H145.82ZM177.07 76.08V110H159.15V27.184H191.022C201.603 27.184 206.894 32.816 206.894 44.08V53.68C206.894 60.5067 204.462 64.8587 199.598 66.736C203.865 68.272 205.998 71.7707 205.998 77.232V110H188.078V78.64C188.078 76.9333 187.267 76.08 185.646 76.08H177.07ZM177.07 39.344V63.536H186.542C187.225 63.536 187.779 63.28 188.206 62.768C188.718 62.256 188.974 61.6587 188.974 60.976V41.904C188.974 41.2213 188.718 40.624 188.206 40.112C187.779 39.6 187.225 39.344 186.542 39.344H177.07Z"/>
</svg>
